<svg width="20" height="20" viewBox="0 0 20 20" fill="none" xmlns="http://www.w3.org/2000/svg">
<path d="M14.9362 4.375C13.4114 4.37525 12.1753 5.61129 12.175 7.13623V7.15169L12.1774 7.26237V7.27051L12.1782 7.27865C12.2524 8.73831 13.4588 9.89803 14.9362 9.89827C16.4137 9.89818 17.6208 8.73837 17.695 7.27865V7.27051L17.6958 7.26237L17.6982 7.15169V7.13623C17.6979 5.61122 16.4612 4.3751 14.9362 4.375ZM14.9362 5.625C15.7709 5.62505 16.4479 6.3016 16.4482 7.13623L16.4466 7.22005C16.4037 8.0159 15.7433 8.64822 14.9362 8.64827C14.1276 8.64803 13.4671 8.01307 13.4266 7.21517L13.425 7.13623C13.4253 6.30174 14.1016 5.62525 14.9362 5.625Z" fill="#797A7B"/>
<path d="M14.9072 10.8926L14.5882 10.9023L14.5687 10.904C13.7396 10.9557 12.9325 11.1843 12.2542 11.5501L12.8483 12.6504C13.3592 12.3749 13.9871 12.1929 14.6427 12.1515L14.9357 12.1426C15.7916 12.1444 16.6238 12.3929 17.2363 12.7871C17.8534 13.1844 18.209 13.7006 18.2129 14.2308C18.1996 14.3925 18.1452 14.5077 18.077 14.5799C18.0106 14.65 17.9174 14.6938 17.793 14.6938H12.7384V15.9438H17.793C18.2422 15.9437 18.6708 15.772 18.986 15.4385C19.2902 15.1164 19.4317 14.7076 19.4604 14.3138L19.4613 14.3032L19.4621 14.2894L19.4629 14.2723V14.2397L19.4548 14.0314C19.3703 13.0068 18.6706 12.2235 17.9126 11.7357C17.0829 11.2018 16.0094 10.8927 14.9268 10.8926H14.9072Z" fill="#797A7B"/>
<path opacity="0.25" d="M5.3597 4.375C6.88455 4.37525 8.12059 5.61129 8.12093 7.13623V7.15169L8.11849 7.26237V7.27051L8.11768 7.27865C8.04351 8.73831 6.83705 9.89803 5.3597 9.89827C3.8822 9.89818 2.67508 8.73837 2.60091 7.27865V7.27051L2.6001 7.26237L2.59766 7.15169V7.13623C2.598 5.61122 3.8347 4.3751 5.3597 4.375ZM5.3597 5.625C4.52497 5.62505 3.84799 6.3016 3.84766 7.13623L3.84928 7.22005C3.89216 8.0159 4.55257 8.64822 5.3597 8.64827C6.16826 8.64803 6.82876 8.01307 6.8693 7.21517L6.87093 7.13623C6.87059 6.30174 6.19428 5.62525 5.3597 5.625Z" fill="#797A7B"/>
<path opacity="0.25" d="M5.38867 10.8926L5.70768 10.9023L5.72721 10.904C6.55626 10.9557 7.36343 11.1843 8.04167 11.5501L7.44759 12.6504C6.93666 12.3749 6.30877 12.1929 5.65316 12.1515L5.36019 12.1426C4.50429 12.1444 3.67207 12.3929 3.05957 12.7871C2.44248 13.1844 2.08685 13.7006 2.08301 14.2308C2.09629 14.3925 2.15069 14.5077 2.21891 14.5799C2.28529 14.65 2.37854 14.6938 2.50293 14.6938H7.55745V15.9438H2.50293C2.05368 15.9437 1.62513 15.772 1.3099 15.4385C1.00568 15.1164 0.864199 14.7076 0.835449 14.3138L0.834635 14.3032L0.833822 14.2894L0.833008 14.2723V14.2397L0.841146 14.0314C0.925588 13.0068 1.62533 12.2235 2.3833 11.7357C3.21296 11.2018 4.28651 10.8927 5.36914 10.8926H5.38867Z" fill="#797A7B"/>
<path d="M10.833 16.6667L9.58301 16.6667L9.58301 2.5L10.833 2.5L10.833 16.6667Z" fill="#797A7B"/>
</svg>
