<svg width="38" height="38" viewBox="0 0 38 38" fill="none" xmlns="http://www.w3.org/2000/svg">
<path d="M31.0744 6.80552C31.3601 7.26784 31.2914 7.86594 30.9071 8.25025L18.0168 21.1406C17.7029 21.4544 17.2381 21.5636 16.817 21.4233L3.92559 17.1268C3.44763 16.9671 3.12514 16.5195 3.125 16.0155C3.125 15.5111 3.44814 15.0626 3.92667 14.9031L29.7073 6.31028C30.2228 6.13844 30.7886 6.34337 31.0744 6.80552ZM8.00297 16.0144L16.872 18.9708L25.74 10.1028L8.00297 16.0144Z" fill="#BCBDBD"/>
<path d="M30.6942 6.42541C30.2319 6.13968 29.6338 6.20834 29.2495 6.59264L16.3592 19.483C16.0453 19.7968 15.9361 20.2617 16.0765 20.6828L20.3729 33.5742C20.5326 34.0521 20.9803 34.3746 21.4842 34.3748C21.9887 34.3748 22.4371 34.0516 22.5967 33.5731L31.1895 7.79245C31.3613 7.27694 31.1564 6.71118 30.6942 6.42541ZM21.4853 29.4968L18.529 20.6277L27.3969 11.7598L21.4853 29.4968Z" fill="#BCBDBD"/>
</svg>
