<svg width="25" height="25" viewBox="0 0 25 25" fill="none" xmlns="http://www.w3.org/2000/svg">
<path d="M14.5833 15.8854C15.0148 15.8854 15.3646 16.2352 15.3646 16.6667C15.3646 17.0981 15.0148 17.4479 14.5833 17.4479H8.33333C7.90186 17.4479 7.55208 17.0981 7.55208 16.6667C7.55208 16.2352 7.90186 15.8854 8.33333 15.8854L14.5833 15.8854Z" fill="#336AFF"/>
<path d="M13.0208 12.2396C13.4523 12.2396 13.8021 12.5894 13.8021 13.0208C13.8021 13.4523 13.4523 13.8021 13.0208 13.8021L8.33333 13.8021C7.90186 13.8021 7.55208 13.4523 7.55208 13.0208C7.55208 12.5894 7.90186 12.2396 8.33333 12.2396L13.0208 12.2396Z" fill="#336AFF"/>
<path fill-rule="evenodd" clip-rule="evenodd" d="M14.978 3.125C15.2659 3.125 15.541 3.24455 15.7379 3.45459L20.0307 8.03324C20.2116 8.22629 20.3125 8.48077 20.3125 8.74532L20.3125 20.8333C20.3125 21.4086 19.8461 21.875 19.2708 21.875L5.72917 21.875C5.15387 21.875 4.6875 21.4086 4.6875 20.8333L4.6875 4.16667C4.6875 3.59137 5.15387 3.125 5.72917 3.125L14.978 3.125ZM6.77083 4.6875C6.48318 4.6875 6.25 4.92068 6.25 5.20833L6.25 19.7917C6.25 20.0793 6.48319 20.3125 6.77083 20.3125L18.2292 20.3125C18.5168 20.3125 18.75 20.0793 18.75 19.7917L18.75 10.1562L14.5833 10.1562C14.1519 10.1562 13.8021 9.80647 13.8021 9.375L13.8021 4.6875L6.77083 4.6875ZM15.3646 8.59375H18.4153L15.3646 5.33956V8.59375Z" fill="#336AFF"/>
</svg>
