<svg width="16" height="16" viewBox="0 0 16 16" fill="none" xmlns="http://www.w3.org/2000/svg">
<circle cx="7.99996" cy="7.99935" r="6.66667" transform="rotate(180 7.99996 7.99935)" fill="white"/>
<path d="M8 14.666C4.3181 14.666 1.33301 11.6809 1.33301 7.99902C1.33301 4.31713 4.3181 1.33203 8 1.33203C11.6819 1.33203 14.667 4.31713 14.667 7.99902C14.667 11.6809 11.6819 14.666 8 14.666ZM4.81445 11.1846C5.0116 11.3817 5.33014 11.3816 5.52734 11.1846L8 8.71191L10.4727 11.1846C10.6699 11.3816 10.9884 11.3817 11.1855 11.1846C11.3827 10.9874 11.3826 10.6689 11.1855 10.4717L8.71289 7.99902L11.1855 5.52637C11.3776 5.33421 11.3776 5.01045 11.1855 4.81836C10.9884 4.62132 10.6698 4.62141 10.4727 4.81836L8 7.28613L5.52734 4.81348C5.33014 4.61641 5.0116 4.61633 4.81445 4.81348C4.6173 5.01063 4.61739 5.32916 4.81445 5.52637L7.28711 7.99902L4.81445 10.4717C4.61739 10.6689 4.6173 10.9874 4.81445 11.1846Z" fill="#DD483C"/>
</svg>
