<svg width="25" height="25" viewBox="0 0 25 25" fill="none" xmlns="http://www.w3.org/2000/svg">
<path d="M13.6007 14.579C12.9306 14.9282 12.1327 14.9369 11.4563 14.6065L5.72917 11.803V15.7224L12.5 19.1221L19.2708 15.7224V11.6178L13.6007 14.579ZM12.3606 4.20104C12.4485 4.15695 12.5515 4.15694 12.6394 4.20104L19.2556 7.52338C19.4838 7.63809 19.4862 7.96466 19.2596 8.08287L12.6272 11.5446L12.559 11.57C12.4885 11.5877 12.4131 11.5803 12.3464 11.5476L5.51148 8.20393C5.27863 8.09001 5.27683 7.75776 5.50843 7.64139L12.3606 4.20104ZM8.45948 7.90587L12.4644 9.8651L16.3757 7.82449L12.499 5.87849L8.45948 7.90587ZM20.8211 16.579C20.7973 16.662 20.7396 16.7324 20.6604 16.7722L12.6394 20.8006C12.5735 20.8336 12.4991 20.8425 12.4288 20.826L12.3606 20.8006L4.3396 16.7722C4.26036 16.7324 4.20272 16.662 4.17888 16.579L4.16667 16.4925L4.16667 9.80203C4.16667 9.57009 4.40872 9.41764 4.6163 9.51923L12.1419 13.2027C12.3741 13.3161 12.6484 13.3129 12.8774 13.1936L20.3766 9.27814C20.5846 9.16957 20.8333 9.32143 20.8333 9.55687L20.8333 16.4925L20.8211 16.579Z" fill="#797A7B"/>
</svg>
