<svg width="16" height="16" viewBox="0 0 16 16" fill="none" xmlns="http://www.w3.org/2000/svg">
<path d="M3.2002 7.99995C3.2002 5.34898 5.34923 3.19995 8.0002 3.19995C10.6512 3.19995 12.8002 5.34898 12.8002 7.99995C12.8002 10.6509 10.6512 12.8 8.0002 12.8C5.34923 12.8 3.2002 10.6509 3.2002 7.99995Z" fill="white"/>
<path fill-rule="evenodd" clip-rule="evenodd" d="M8.00016 1.33337C4.31826 1.33337 1.3335 4.31814 1.3335 8.00004C1.3335 11.6819 4.31826 14.6667 8.00016 14.6667C11.6821 14.6667 14.6668 11.6819 14.6668 8.00004C14.6668 4.31814 11.6821 1.33337 8.00016 1.33337ZM8.00135 12.0406C7.45188 12.0406 7.00645 11.5952 7.00645 11.0457V7.63707C7.00645 7.0876 7.45188 6.64217 8.00135 6.64217C8.55082 6.64217 8.99626 7.0876 8.99626 7.63707V11.0457C8.99626 11.5952 8.55082 12.0406 8.00135 12.0406ZM7.09764 4.86593C7.09764 4.36385 7.50466 3.95684 8.00673 3.95684C8.50881 3.95684 8.91582 4.36385 8.91582 4.86593C8.91582 5.36801 8.50881 5.77502 8.00673 5.77502C7.50466 5.77502 7.09764 5.36801 7.09764 4.86593Z" fill="#4D88FF"/>
</svg>
