<svg width="20" height="20" viewBox="0 0 20 20" fill="none" xmlns="http://www.w3.org/2000/svg">
<path fill-rule="evenodd" clip-rule="evenodd" d="M4.75329 6.75082C6.69958 2.26504 13.0668 2.19517 15.1508 6.5412L15.2465 6.75082L15.4013 7.10801C16.1404 7.38544 16.6664 8.08985 16.6666 8.91741V10.4672C16.6666 11.3346 16.0894 12.0683 15.294 12.3152V12.4045C15.294 14.2234 13.8017 15.6979 11.9607 15.6979H11.8458C11.6131 16.2659 11.0504 16.6666 10.3921 16.6666H9.60776C8.74143 16.6666 8.03913 15.9727 8.03913 15.1168C8.03931 14.2609 8.74154 13.5669 9.60776 13.5669H10.3921C11.0502 13.5669 11.613 13.9679 11.8458 14.5356H11.9607C13.1519 14.5356 14.1176 13.5815 14.1176 12.4045V12.3152C13.3222 12.0683 12.745 11.3346 12.745 10.4672V8.91741C12.7452 8.05526 13.3157 7.32582 14.1038 7.07471L14.0892 7.04217C12.4558 3.63612 7.5088 3.64736 5.89606 7.07471C6.68415 7.32582 7.25468 8.05526 7.25482 8.91741V10.4672C7.25482 11.5372 6.37695 12.4045 5.29404 12.4045C4.21112 12.4045 3.33325 11.5372 3.33325 10.4672V8.91741C3.33339 8.0901 3.85902 7.38562 4.5978 7.10801L4.75329 6.75082ZM9.99992 14.447C9.88134 14.515 9.7822 14.6121 9.71346 14.7293H9.60776C9.39129 14.7293 9.21578 14.9029 9.2156 15.1168C9.2156 15.3307 9.39118 15.5042 9.60776 15.5042H9.71346C9.78217 15.6214 9.88132 15.7185 9.99992 15.7865C10.1185 15.7185 10.2177 15.6214 10.2864 15.5042H10.3921C10.6087 15.5042 10.7842 15.3307 10.7842 15.1168C10.7841 14.9296 10.6497 14.7729 10.471 14.7369L10.3921 14.7293H10.2864C10.2176 14.6121 10.1185 14.515 9.99992 14.447ZM5.29404 8.1425C4.86098 8.1425 4.5099 8.48958 4.50972 8.91741V10.4672C4.50972 10.8952 4.86087 11.2422 5.29404 11.2422C5.70006 11.2422 6.03426 10.9374 6.07452 10.5467L6.07835 10.4672V8.91741C6.07818 8.48958 5.72709 8.1425 5.29404 8.1425ZM14.7058 8.1425C14.2727 8.1425 13.9217 8.48958 13.9215 8.91741V10.4672C13.9215 10.8952 14.2726 11.2422 14.7058 11.2422C15.1118 11.2422 15.446 10.9374 15.4863 10.5467L15.4901 10.4672V8.91741C15.4899 8.48958 15.1389 8.1425 14.7058 8.1425Z" fill="#797A7B"/>
</svg>
