<svg width="60" height="60" viewBox="0 0 60 60" fill="none" xmlns="http://www.w3.org/2000/svg">
<path d="M24.7925 46.2502C24.4529 47.4244 24.2652 48.6561 24.2651 49.9196C24.2651 49.9464 24.2694 49.9735 24.27 50.0002H11.875C10.8395 50.0002 10 49.1607 10 48.1252C10.0002 47.0898 10.8396 46.2502 11.875 46.2502H24.7925Z" fill="#336AFF"/>
<path fill-rule="evenodd" clip-rule="evenodd" d="M34.0649 41.0719C37.8728 39.5827 42.1539 39.5895 45.9644 41.0719C49.2376 42.3457 51.5331 45.3212 51.9653 48.7477C52.014 49.1333 52.0459 49.5244 52.0459 49.9196L52.0215 49.9757L51.9653 50.0002H28.0957C28.0738 49.9998 28.0539 49.9901 28.0396 49.9757L28.0151 49.9196C28.0152 48.9273 28.174 47.9617 28.4668 47.0485C28.4934 46.9648 28.5234 46.8823 28.5522 46.7995C28.5812 46.7171 28.609 46.6344 28.6401 46.5529C28.6748 46.4617 28.7126 46.3719 28.75 46.2819C28.7543 46.2715 28.7578 46.2606 28.7622 46.2502C29.6478 44.1418 31.2783 42.3837 33.396 41.3625L34.0649 41.0719ZM44.6045 44.5656C41.6643 43.4219 38.355 43.419 35.4297 44.5631C34.5017 44.9263 33.7082 45.5164 33.0981 46.2502H46.9434C46.3295 45.5182 45.5338 44.9272 44.6045 44.5656Z" fill="#336AFF"/>
<path d="M20 26.8752C21.0354 26.8752 21.8748 27.7148 21.875 28.7502V42.5002C21.875 43.5357 21.0355 44.3752 20 44.3752C18.9645 44.3752 18.125 43.5357 18.125 42.5002V28.7502C18.1252 27.7148 18.9646 26.8752 20 26.8752Z" fill="#336AFF"/>
<path d="M28.562 26.8752C29.5974 26.8752 30.4368 27.7148 30.437 28.7502V38.7209C28.9495 39.6621 27.6825 40.8864 26.687 42.3V28.7502C26.6873 27.7149 27.5267 26.8752 28.562 26.8752Z" fill="#336AFF"/>
<path fill-rule="evenodd" clip-rule="evenodd" d="M40 26.2502C43.4517 26.2502 46.2499 29.0485 46.25 32.5002C46.25 35.9519 43.4518 38.7502 40 38.7502C36.5482 38.7502 33.75 35.9519 33.75 32.5002C33.7501 29.0485 36.5483 26.2502 40 26.2502ZM40 30.0002C38.6194 30.0002 37.5001 31.1195 37.5 32.5002C37.5 33.8809 38.6193 35.0002 40 35.0002C41.3807 35.0002 42.5 33.8809 42.5 32.5002C42.4999 31.1195 41.3806 30.0002 40 30.0002Z" fill="#336AFF"/>
<path fill-rule="evenodd" clip-rule="evenodd" d="M29.1846 10.1857C29.7847 9.89592 30.5039 9.94568 31.0645 10.3322L49.1895 22.8322L49.3408 22.9494C50.0646 23.5651 50.2189 24.6404 49.668 25.4396C49.1169 26.2384 48.0568 26.4778 47.2241 26.0207L47.0605 25.9181L43.0103 23.1227L43.0005 23.1252H16.9995L16.9873 23.1227L12.9395 25.9181C12.0871 26.506 10.92 26.2919 10.332 25.4396C9.74442 24.5873 9.95838 23.4201 10.8105 22.8322L28.9355 10.3322L29.1846 10.1857ZM22.4243 19.3752H37.5757L30 14.1506L22.4243 19.3752Z" fill="#336AFF"/>
</svg>
