<svg width="25" height="25" viewBox="0 0 25 25" fill="none" xmlns="http://www.w3.org/2000/svg">
<path d="M5.72853 20.8327C4.84994 20.8325 4.24618 20.2828 4.17407 19.441L4.16666 19.2691V18.2264C4.16666 15.626 8.23494 13.5337 12.4995 13.5336C16.7641 13.5336 20.8333 15.626 20.8333 18.2264L20.8323 19.2691L20.8259 19.441C20.7586 20.227 20.2273 20.758 19.4421 20.8253L19.2704 20.8327L5.72853 20.8327ZM14.8497 8.07598C14.8494 6.84391 13.8247 5.79534 12.4995 5.79534C11.1743 5.79548 10.1505 6.84399 10.1503 8.07598C10.1503 9.30815 11.1742 10.3575 12.4995 10.3577C13.8249 10.3577 14.8497 9.30823 14.8497 8.07598ZM5.79422 19.2034H19.2047L19.2058 18.2264L19.2015 18.1479C19.1582 17.7364 18.769 17.0364 17.4849 16.334C16.2 15.6311 14.39 15.1629 12.4995 15.1629C10.6089 15.163 8.79888 15.6311 7.51398 16.334C6.14504 17.083 5.79422 17.8298 5.79422 18.2264L5.79422 19.2034ZM16.472 8.27752C16.3655 10.3437 14.6274 11.987 12.4995 11.987C10.3717 11.9869 8.6345 10.3436 8.52803 8.27752L8.52273 8.07598C8.52296 5.91661 10.3032 4.16615 12.4995 4.16602C14.6958 4.16602 16.477 5.91653 16.4773 8.07598L16.472 8.27752Z" fill="#336AFF"/>
</svg>
