<svg width="20" height="20" viewBox="0 0 20 20" fill="none" xmlns="http://www.w3.org/2000/svg">
<path d="M11.6667 12.7083C12.0118 12.7083 12.2917 12.9882 12.2917 13.3333C12.2917 13.6785 12.0118 13.9583 11.6667 13.9583L6.66667 13.9583C6.32149 13.9583 6.04167 13.6785 6.04167 13.3333C6.04167 12.9882 6.32149 12.7083 6.66667 12.7083L11.6667 12.7083Z" fill="#797A7B"/>
<path d="M10.4167 9.79167C10.7618 9.79167 11.0417 10.0715 11.0417 10.4167C11.0417 10.7618 10.7618 11.0417 10.4167 11.0417L6.66667 11.0417C6.32149 11.0417 6.04167 10.7618 6.04167 10.4167C6.04167 10.0715 6.32149 9.79167 6.66667 9.79167H10.4167Z" fill="#797A7B"/>
<path fill-rule="evenodd" clip-rule="evenodd" d="M11.9824 2.5C12.2128 2.5 12.4328 2.59564 12.5903 2.76367L16.0246 6.42659C16.1693 6.58103 16.25 6.78461 16.25 6.99626V16.6667C16.25 17.1269 15.8769 17.5 15.4167 17.5H4.58333C4.1231 17.5 3.75 17.1269 3.75 16.6667L3.75 3.33333C3.75 2.8731 4.1231 2.5 4.58333 2.5L11.9824 2.5ZM5.41667 3.75C5.18655 3.75 5 3.93655 5 4.16667L5 15.8333C5 16.0635 5.18655 16.25 5.41667 16.25H14.5833C14.8135 16.25 15 16.0635 15 15.8333V8.125L11.6667 8.125C11.3215 8.125 11.0417 7.84518 11.0417 7.5V3.75L5.41667 3.75ZM12.2917 6.875H14.7323L12.2917 4.27165V6.875Z" fill="#797A7B"/>
</svg>
