<svg width="22" height="22" viewBox="0 0 22 22" fill="none" xmlns="http://www.w3.org/2000/svg">
<path d="M8.81521 16.4446C8.69446 16.8621 8.62773 17.3 8.62771 17.7493C8.62771 17.7588 8.62925 17.7685 8.62945 17.7779H4.22233C3.85415 17.7779 3.55567 17.4795 3.55566 17.1113C3.55575 16.7432 3.85419 16.4446 4.22233 16.4446H8.81521Z" fill="#797A7B"/>
<path fill-rule="evenodd" clip-rule="evenodd" d="M12.1121 14.6035C13.466 14.074 14.9881 14.0764 16.343 14.6035C17.5068 15.0563 18.323 16.1143 18.4767 17.3326C18.494 17.4697 18.5053 17.6088 18.5053 17.7493L18.4966 17.7693L18.4767 17.7779H9.98969C9.98192 17.7778 9.97484 17.7744 9.96973 17.7693L9.96105 17.7493C9.96106 17.3965 10.0175 17.0532 10.1216 16.7285C10.1311 16.6987 10.1417 16.6694 10.152 16.6399C10.1623 16.6106 10.1722 16.5812 10.1833 16.5522C10.1956 16.5198 10.209 16.4879 10.2223 16.4559C10.2239 16.4522 10.2251 16.4483 10.2267 16.4446C10.5416 15.695 11.1213 15.0699 11.8742 14.7068L12.1121 14.6035ZM15.8595 15.8457C14.8141 15.439 13.6374 15.438 12.5973 15.8448C12.2674 15.9739 11.9853 16.1837 11.7683 16.4446H16.6911C16.4728 16.1843 16.1899 15.9742 15.8595 15.8457Z" fill="#797A7B"/>
<path d="M7.11122 9.55572C7.47936 9.55572 7.7778 9.85427 7.77789 10.2224L7.77789 15.1113C7.77788 15.4795 7.4794 15.7779 7.11122 15.7779C6.74303 15.7779 6.44456 15.4795 6.44455 15.1113L6.44455 10.2224C6.44464 9.85427 6.74308 9.55572 7.11122 9.55572Z" fill="#797A7B"/>
<path d="M10.1555 9.55572C10.5236 9.55572 10.8221 9.85427 10.8222 10.2224L10.8222 13.7675C10.2933 14.1022 9.84278 14.5375 9.48882 15.0401L9.48882 10.2224C9.48891 9.85428 9.78737 9.55574 10.1555 9.55572Z" fill="#797A7B"/>
<path fill-rule="evenodd" clip-rule="evenodd" d="M14.2223 9.3335C15.4496 9.3335 16.4445 10.3285 16.4446 11.5557C16.4446 12.783 15.4496 13.7779 14.2223 13.7779C12.995 13.7779 12.0001 12.783 12.0001 11.5557C12.0001 10.3285 12.9951 9.3335 14.2223 9.3335ZM14.2223 10.6668C13.7314 10.6668 13.3335 11.0648 13.3334 11.5557C13.3334 12.0466 13.7314 12.4446 14.2223 12.4446C14.7132 12.4446 15.1112 12.0466 15.1112 11.5557C15.1112 11.0648 14.7132 10.6668 14.2223 10.6668Z" fill="#797A7B"/>
<path fill-rule="evenodd" clip-rule="evenodd" d="M10.3768 3.62169C10.5902 3.51866 10.8459 3.53635 11.0452 3.67378L17.4897 8.11822L17.5435 8.15989C17.8009 8.37882 17.8557 8.76115 17.6598 9.04531C17.4639 9.3293 17.087 9.41444 16.7909 9.2519L16.7327 9.21544L15.2926 8.22152L15.2892 8.22239L6.04438 8.22239L6.04004 8.22152L4.6008 9.21544C4.29774 9.42445 3.88277 9.34833 3.67372 9.04531C3.46479 8.74224 3.54087 8.32725 3.84386 8.11822L10.2883 3.67378L10.3768 3.62169ZM7.9732 6.88906L13.3604 6.88906L10.6668 5.03142L7.9732 6.88906Z" fill="#797A7B"/>
</svg>
