<svg width="25" height="25" viewBox="0 0 25 25" fill="none" xmlns="http://www.w3.org/2000/svg">
<path d="M20.0519 19.2708C20.4834 19.2708 20.8331 19.6206 20.8332 20.052C20.8332 20.4835 20.4834 20.8333 20.0519 20.8333L4.94775 20.8333C4.51628 20.8333 4.1665 20.4835 4.1665 20.052C4.16656 19.6206 4.51632 19.2708 4.94775 19.2708H20.0519Z" fill="#797A7B"/>
<path d="M8.33317 11.1978C8.76461 11.1978 9.11436 11.5477 9.11442 11.9791L9.11442 17.7083C9.11442 18.1397 8.76464 18.4895 8.33317 18.4895C7.9017 18.4895 7.55192 18.1397 7.55192 17.7083V11.9791C7.55198 11.5477 7.90173 11.1978 8.33317 11.1978Z" fill="#797A7B"/>
<path d="M12.4998 11.1978C12.9313 11.1978 13.281 11.5477 13.2811 11.9791V17.7083C13.2811 18.1397 12.9313 18.4895 12.4998 18.4895C12.0684 18.4895 11.7186 18.1397 11.7186 17.7083L11.7186 11.9791C11.7186 11.5477 12.0684 11.1978 12.4998 11.1978Z" fill="#797A7B"/>
<path d="M16.6665 11.1978C17.0979 11.1978 17.4477 11.5477 17.4478 11.9791V17.7083C17.4478 18.1397 17.098 18.4895 16.6665 18.4895C16.235 18.4895 15.8853 18.1397 15.8853 17.7083V11.9791C15.8853 11.5477 16.2351 11.1978 16.6665 11.1978Z" fill="#797A7B"/>
<path fill-rule="evenodd" clip-rule="evenodd" d="M12.1601 4.2439C12.4101 4.12313 12.7098 4.14386 12.9434 4.30494L20.4954 9.51327L20.5585 9.5621C20.8601 9.81867 20.9244 10.2667 20.6948 10.5997C20.4652 10.9325 20.0235 11.0323 19.6766 10.8418L19.6084 10.7991L17.9208 9.63432L17.9167 9.63534L7.08297 9.63534L7.07788 9.63432L5.39128 10.7991C5.03611 11.044 4.54983 10.9548 4.30485 10.5997C4.05996 10.2445 4.14914 9.75824 4.50423 9.51327L12.0563 4.30494L12.1601 4.2439ZM9.3433 8.07284L15.6564 8.07284L12.4998 5.89592L9.3433 8.07284Z" fill="#797A7B"/>
</svg>
