<svg width="32" height="32" viewBox="0 0 32 32" fill="none" xmlns="http://www.w3.org/2000/svg">
<path d="M25.6666 24.6674C26.2189 24.6674 26.6666 25.1152 26.6666 25.6674C26.6666 26.2197 26.2189 26.6674 25.6666 26.6674L6.33331 26.6674C5.78103 26.6674 5.33331 26.2197 5.33331 25.6674C5.33339 25.1152 5.78107 24.6674 6.33331 24.6674L25.6666 24.6674Z" fill="#336AFF"/>
<path d="M10.6666 14.3341C11.2189 14.3341 11.6666 14.7819 11.6666 15.3341L11.6666 22.6674C11.6666 23.2197 11.2189 23.6674 10.6666 23.6674C10.1144 23.6674 9.66665 23.2197 9.66665 22.6674L9.66665 15.3341C9.66672 14.7819 10.1144 14.3341 10.6666 14.3341Z" fill="#336AFF"/>
<path d="M16 14.3341C16.5522 14.3341 16.9999 14.7819 17 15.3341L17 22.6674C17 23.2197 16.5523 23.6674 16 23.6674C15.4477 23.6674 15 23.2197 15 22.6674L15 15.3341C15.0001 14.7819 15.4477 14.3341 16 14.3341Z" fill="#336AFF"/>
<path d="M21.3333 14.3341C21.8856 14.3341 22.3332 14.7819 22.3333 15.3341L22.3333 22.6674C22.3333 23.2197 21.8856 23.6674 21.3333 23.6674C20.781 23.6674 20.3333 23.2197 20.3333 22.6674L20.3333 15.3341C20.3334 14.7819 20.7811 14.3341 21.3333 14.3341Z" fill="#336AFF"/>
<path fill-rule="evenodd" clip-rule="evenodd" d="M15.5651 5.43305C15.8852 5.27847 16.2687 5.305 16.5677 5.51118L26.2344 12.1778L26.3151 12.2403C26.7012 12.5688 26.7835 13.1422 26.4896 13.5685C26.1957 13.9945 25.6303 14.1222 25.1862 13.8784L25.0989 13.8237L22.9388 12.3328L22.9336 12.3341L9.06639 12.3341L9.05988 12.3328L6.90102 13.8237C6.44641 14.1372 5.82397 14.023 5.5104 13.5685C5.19694 13.1139 5.31108 12.4914 5.7656 12.1778L15.4323 5.51118L15.5651 5.43305ZM11.9596 10.3341L20.0403 10.3341L16 7.54764L11.9596 10.3341Z" fill="#336AFF"/>
</svg>
