<svg width="25" height="25" viewBox="0 0 25 25" fill="none" xmlns="http://www.w3.org/2000/svg">
<path d="M8.86191 12.6544C9.18234 12.4052 9.64463 12.4625 9.89403 12.7827C10.1432 13.1031 10.0859 13.5654 9.76573 13.8148L7.0447 15.9307L18.1375 15.9307C18.5436 15.9307 18.8728 16.2599 18.8728 16.6659C18.8728 17.072 18.5436 17.4012 18.1375 17.4012H7.0447L9.76573 19.5171L9.82222 19.566C10.0918 19.8233 10.1278 20.2487 9.89403 20.5492C9.64463 20.8694 9.18232 20.9267 8.86191 20.6775L4.45006 17.2461C4.39002 17.1994 4.33901 17.1437 4.29687 17.0824C4.29465 17.0792 4.29233 17.0761 4.29017 17.0728C4.26771 17.0391 4.24833 17.0035 4.23176 16.9666C4.22737 16.9568 4.22329 16.9469 4.21932 16.9369C4.20417 16.8987 4.19154 16.8595 4.18293 16.8191C4.18012 16.8059 4.17832 16.7924 4.17623 16.7789C4.17045 16.7418 4.16666 16.7041 4.16666 16.6659C4.16666 16.6291 4.16989 16.5927 4.17527 16.5568C4.17753 16.5417 4.17977 16.5266 4.18293 16.5118C4.19171 16.4708 4.20383 16.4308 4.21932 16.3921C4.22294 16.3831 4.22683 16.3742 4.2308 16.3653C4.24751 16.328 4.26746 16.2922 4.29017 16.2581C4.29233 16.2548 4.29465 16.2517 4.29687 16.2485C4.33893 16.1875 4.39022 16.1324 4.45006 16.0858L8.86191 12.6544Z" fill="#BCBDBD"/>
<path d="M16.1384 4.32105C15.818 4.07183 15.3557 4.12914 15.1063 4.44934C14.8571 4.76976 14.9144 5.23206 15.2346 5.48143L17.9556 7.59732L6.8628 7.59732C6.4567 7.59732 6.12749 7.92652 6.12749 8.33261C6.12753 8.73867 6.45672 9.06791 6.8628 9.06791L17.9556 9.06791L15.2346 11.1838L15.1781 11.2326C14.9085 11.49 14.8726 11.9154 15.1063 12.2159C15.3557 12.536 15.818 12.5933 16.1384 12.3442L20.5503 8.91281C20.6103 8.86605 20.6613 8.81035 20.7035 8.74909C20.7057 8.74588 20.708 8.74276 20.7102 8.73951C20.7326 8.70573 20.752 8.67019 20.7686 8.63324C20.773 8.62346 20.777 8.61356 20.781 8.60356C20.7962 8.5654 20.8088 8.52621 20.8174 8.4858C20.8202 8.47255 20.822 8.45909 20.8241 8.44559C20.8299 8.40844 20.8337 8.37077 20.8337 8.33261C20.8337 8.29581 20.8304 8.25934 20.8251 8.22347C20.8228 8.20833 20.8206 8.19329 20.8174 8.17847C20.8086 8.1375 20.7965 8.09744 20.781 8.05879C20.7774 8.04975 20.7735 8.04084 20.7695 8.03198C20.7528 7.99466 20.7329 7.95885 20.7102 7.92475C20.708 7.92151 20.7057 7.91838 20.7035 7.91518C20.6614 7.85415 20.6101 7.79903 20.5503 7.75242L16.1384 4.32105Z" fill="#BCBDBD"/>
</svg>
