<svg width="32" height="32" viewBox="0 0 32 32" fill="none" xmlns="http://www.w3.org/2000/svg">
<path d="M16.9099 21.9306H15.0794L15.0794 14.9137H16.9099L16.9099 21.9306Z" fill="#336AFF"/>
<path d="M15.9946 10.0682C16.7254 10.0684 17.3174 10.6615 17.3174 11.3922C17.3173 12.1229 16.7253 12.7148 15.9946 12.715C15.2638 12.715 14.6708 12.123 14.6706 11.3922C14.6706 10.6613 15.2637 10.0682 15.9946 10.0682Z" fill="#336AFF"/>
<path fill-rule="evenodd" clip-rule="evenodd" d="M16.6179 4.01549C22.9581 4.3372 28 9.5805 28 16.0006L27.9845 16.6179C27.6628 22.9577 22.4203 27.9996 16.0006 28L15.3821 27.9845C9.24662 27.6733 4.32688 22.7533 4.01549 16.6179L4 16.0006C4 9.37318 9.37318 4 16.0006 4L16.6179 4.01549ZM16.0006 5.83048C10.3841 5.83048 5.83048 10.3841 5.83048 16.0006C5.831 21.6166 10.3844 26.1695 16.0006 26.1695C21.6164 26.1691 26.169 21.6163 26.1695 16.0006C26.1695 10.3844 21.6167 5.83092 16.0006 5.83048Z" fill="#336AFF"/>
</svg>
