<svg width="20" height="20" viewBox="0 0 20 20" fill="none" xmlns="http://www.w3.org/2000/svg">
<rect width="20" height="20" rx="10" fill="#DCEBF9"/>
<path d="M13.3447 6.6606C13.1377 6.45355 12.8032 6.45355 12.5961 6.6606L10 9.25142L7.40387 6.65529C7.19681 6.44824 6.86234 6.44824 6.65529 6.65529C6.44824 6.86234 6.44824 7.19681 6.65529 7.40387L9.25142 10L6.65529 12.5961C6.44824 12.8032 6.44824 13.1377 6.65529 13.3447C6.86234 13.5518 7.19681 13.5518 7.40387 13.3447L10 10.7486L12.5961 13.3447C12.8032 13.5518 13.1377 13.5518 13.3447 13.3447C13.5518 13.1377 13.5518 12.8032 13.3447 12.5961L10.7486 10L13.3447 7.40387C13.5465 7.20212 13.5465 6.86234 13.3447 6.6606V6.6606Z" fill="#3EA1FF"/>
</svg>
