<svg width="38" height="38" viewBox="0 0 38 38" fill="none" xmlns="http://www.w3.org/2000/svg">
<path d="M21.875 23.8281C22.5222 23.8281 23.0469 24.3528 23.0469 25C23.0469 25.6472 22.5222 26.1719 21.875 26.1719H12.5C11.8528 26.1719 11.3281 25.6472 11.3281 25C11.3281 24.3528 11.8528 23.8281 12.5 23.8281H21.875Z" fill="#73A2F5"/>
<path d="M19.5312 18.3594C20.1785 18.3594 20.7031 18.884 20.7031 19.5312C20.7031 20.1785 20.1785 20.7031 19.5312 20.7031H12.5C11.8528 20.7031 11.3281 20.1785 11.3281 19.5312C11.3281 18.884 11.8528 18.3594 12.5 18.3594H19.5312Z" fill="#73A2F5"/>
<path fill-rule="evenodd" clip-rule="evenodd" d="M22.467 4.6875C22.8989 4.6875 23.3115 4.86682 23.6069 5.18188L30.0461 12.0499C30.3174 12.3394 30.4688 12.7212 30.4688 13.118V31.25C30.4688 32.1129 29.7692 32.8125 28.9062 32.8125H8.59375C7.73081 32.8125 7.03125 32.1129 7.03125 31.25V6.25C7.03125 5.38706 7.73081 4.6875 8.59375 4.6875H22.467ZM10.1562 7.03125C9.72478 7.03125 9.375 7.38103 9.375 7.8125V29.6875C9.375 30.119 9.72478 30.4688 10.1562 30.4688H27.3438C27.7752 30.4688 28.125 30.119 28.125 29.6875V15.2344H21.875C21.2278 15.2344 20.7031 14.7097 20.7031 14.0625V7.03125H10.1562ZM23.0469 12.8906H27.623L23.0469 8.00934V12.8906Z" fill="#73A2F5"/>
</svg>
