<svg width="32" height="32" viewBox="0 0 32 32" fill="none" xmlns="http://www.w3.org/2000/svg">
<path d="M28.0001 25.7943C28.4972 25.7943 28.9001 26.1973 28.9001 26.6943C28.9001 27.1914 28.4972 27.5943 28.0001 27.5943L4.0001 27.5943C3.50304 27.5943 3.1001 27.1914 3.1001 26.6943C3.1001 26.1973 3.50304 25.7943 4.0001 25.7943L28.0001 25.7943Z" fill="#336AFF"/>
<path d="M26.2196 26.5443H24.4196L24.4196 6.20527L14.331 6.20527L14.331 26.692L12.531 26.692L12.531 5.90527C12.531 5.07685 13.2025 4.40528 14.031 4.40527L24.7196 4.40527C25.5479 4.40549 26.2196 5.07698 26.2196 5.90527L26.2196 26.5443Z" fill="#336AFF"/>
<path d="M5.78096 14.6979C5.78131 13.7744 6.7811 13.1978 7.58096 13.6596L13.4345 17.0381L12.5345 18.5979L7.58096 15.7373L7.58096 26.6885H5.78096L5.78096 14.6979Z" fill="#336AFF"/>
<path d="M21.7196 9.13848L21.7173 10.9385L17.0814 10.935L17.0837 9.13496L21.7196 9.13848Z" fill="#336AFF"/>
<path d="M21.7196 13.9385L21.7173 15.7385L17.0814 15.735L17.0837 13.935L21.7196 13.9385Z" fill="#336AFF"/>
<path d="M21.7196 18.7385L21.7173 20.5385L17.0814 20.535L17.0837 18.735L21.7196 18.7385Z" fill="#336AFF"/>
</svg>
