<svg width="20" height="20" viewBox="0 0 20 20" fill="none" xmlns="http://www.w3.org/2000/svg">
<circle cx="9.99996" cy="10.0003" r="8.33333" fill="white"/>
<path fill-rule="evenodd" clip-rule="evenodd" d="M9.99996 18.3337C14.6023 18.3337 18.3333 14.6027 18.3333 10.0003C18.3333 5.39795 14.6023 1.66699 9.99996 1.66699C5.39759 1.66699 1.66663 5.39795 1.66663 10.0003C1.66663 14.6027 5.39759 18.3337 9.99996 18.3337ZM14.4313 6.81312C14.3348 6.71552 14.2034 6.66043 14.0662 6.66008C13.929 6.65972 13.7973 6.71413 13.7004 6.81123L8.37761 12.2805L6.2997 10.2009C6.20296 10.1041 6.07166 10.0497 5.9348 10.0499C5.79793 10.05 5.66674 10.1046 5.5702 10.2016L5.21289 10.5607C5.01272 10.7618 5.01293 11.087 5.21337 11.2879L8.01311 14.0938C8.10972 14.1907 8.24089 14.2451 8.37768 14.2451C8.51447 14.2451 8.64566 14.1907 8.7423 14.0939L14.7867 7.90069C14.9868 7.70033 14.9876 7.37609 14.7886 7.17471L14.4313 6.81312Z" fill="#56C488"/>
</svg>
