<svg width="25" height="25" viewBox="0 0 25 25" fill="none" xmlns="http://www.w3.org/2000/svg">
<path d="M20.0521 19.2703C20.4835 19.2703 20.8333 19.6201 20.8333 20.0515C20.8333 20.483 20.4836 20.8328 20.0521 20.8328L4.94792 20.8328C4.51645 20.8328 4.16667 20.483 4.16667 20.0515C4.16673 19.6201 4.51649 19.2703 4.94792 19.2703H20.0521Z" fill="#BCBDBD"/>
<path d="M8.33334 11.1974C8.76478 11.1974 9.11453 11.5472 9.11459 11.9786L9.11459 17.7078C9.11459 18.1392 8.76481 18.489 8.33334 18.489C7.90187 18.489 7.55209 18.1392 7.55209 17.7078V11.9786C7.55215 11.5472 7.9019 11.1974 8.33334 11.1974Z" fill="#BCBDBD"/>
<path d="M12.5 11.1974C12.9314 11.1974 13.2812 11.5472 13.2813 11.9786V17.7078C13.2813 18.1392 12.9315 18.489 12.5 18.489C12.0685 18.489 11.7188 18.1392 11.7188 17.7078L11.7188 11.9786C11.7188 11.5472 12.0686 11.1974 12.5 11.1974Z" fill="#BCBDBD"/>
<path d="M16.6667 11.1974C17.0981 11.1974 17.4479 11.5472 17.4479 11.9786V17.7078C17.4479 18.1392 17.0981 18.489 16.6667 18.489C16.2352 18.489 15.8854 18.1392 15.8854 17.7078V11.9786C15.8855 11.5472 16.2352 11.1974 16.6667 11.1974Z" fill="#BCBDBD"/>
<path fill-rule="evenodd" clip-rule="evenodd" d="M12.1602 4.24341C12.4103 4.12264 12.7099 4.14337 12.9435 4.30445L20.4956 9.51278L20.5587 9.56161C20.8603 9.81818 20.9246 10.2662 20.695 10.5992C20.4654 10.932 20.0237 11.0318 19.6767 10.8413L19.6086 10.7986L17.9209 9.63384L17.9169 9.63485L7.08314 9.63485L7.07805 9.63384L5.39144 10.7986C5.03628 11.0435 4.55 10.9543 4.30502 10.5992C4.06013 10.2441 4.14931 9.75775 4.5044 9.51278L12.0565 4.30445L12.1602 4.24341ZM9.34347 8.07235L15.6565 8.07235L12.5 5.89543L9.34347 8.07235Z" fill="#BCBDBD"/>
</svg>
