<svg width="16" height="16" viewBox="0 0 16 16" fill="none" xmlns="http://www.w3.org/2000/svg">
<path d="M6.98449 5.48308C6.98449 5.08379 7.30818 4.7601 7.70747 4.7601C8.10676 4.7601 8.43045 5.08379 8.43045 5.48308C8.43045 5.88237 8.10676 6.20605 7.70747 6.20605C7.30818 6.20605 6.98449 5.88237 6.98449 5.48308Z" fill="#BCBDBD"/>
<path d="M13.2661 8.00033C13.2661 4.93213 10.779 2.44451 7.71081 2.44434C4.6425 2.44434 2.15482 4.93202 2.15482 8.00033C2.15499 11.0685 4.64261 13.5557 7.71081 13.5557V14.5557L7.37291 14.5472C4.021 14.3772 1.33329 11.6895 1.16328 8.33757L1.15482 8.00033C1.15482 4.37973 4.09021 1.44434 7.71081 1.44434L8.04805 1.4528C11.5118 1.62848 14.2661 4.49295 14.2661 8.00033L14.2577 8.33757C14.082 11.8012 11.218 14.5555 7.71081 14.5557V13.5557C10.7789 13.5555 13.266 11.0684 13.2661 8.00033Z" fill="#BCBDBD"/>
<path d="M7.20749 11.2402L7.20749 7.4069L8.20749 7.4069L8.20749 11.2402L7.20749 11.2402Z" fill="#BCBDBD"/>
</svg>
