<svg width="24" height="24" viewBox="0 0 24 24" fill="none" xmlns="http://www.w3.org/2000/svg">
<path fill-rule="evenodd" clip-rule="evenodd" d="M15.0691 4L19.9999 8.93083L8.93083 19.9999L4.00463 19.9953L4 15.0691L15.0691 4ZM5.522 15.6987L5.52461 18.4753L8.30124 18.4779L17.8483 8.93083L15.0691 6.15159L5.522 15.6987Z" fill="#7C7C7C"/>
<path fill-rule="evenodd" clip-rule="evenodd" d="M15.0691 4L19.9999 8.93083L8.93083 19.9999L4.00463 19.9953L4 15.0691L15.0691 4ZM5.522 15.6987L5.52461 18.4753L8.30124 18.4779L17.8483 8.93083L15.0691 6.15159L5.522 15.6987Z" fill="#7C7C7C"/>
<path fill-rule="evenodd" clip-rule="evenodd" d="M15.6379 12.4472L11.5333 8.34261L12.6091 7.26681L16.7136 11.3714L15.6379 12.4472Z" fill="#7C7C7C"/>
</svg>
