<svg width="32" height="32" viewBox="0 0 32 32" fill="none" xmlns="http://www.w3.org/2000/svg">
<path d="M6.67301 22.8034C6.73688 23.4306 7.23588 23.9296 7.86312 23.9935L7.99984 24L23.9998 24C24.6901 24 25.2582 23.4756 25.3267 22.8034L25.3332 22.6667L25.3332 9.33333C25.3332 8.59695 24.7362 8 23.9998 8V6C25.8408 6 27.3332 7.49238 27.3332 9.33333L27.3332 22.6667C27.3332 24.5076 25.8408 26 23.9998 26L7.99984 26C6.15889 26 4.6665 24.5076 4.6665 22.6667L4.6665 9.33333C4.6665 7.49239 6.15889 6 7.99984 6V8L7.86312 8.00651C7.19095 8.07495 6.6665 8.6431 6.6665 9.33333L6.6665 22.6667L6.67301 22.8034ZM23.9998 6V8L7.99984 8V6L23.9998 6Z" fill="#336AFF"/>
<path d="M22.1525 12C22.6261 11.7162 23.2409 11.8703 23.5249 12.3438C23.8088 12.8173 23.6546 13.4321 23.1812 13.7162L16.5145 17.7162C16.198 17.9059 15.8024 17.9059 15.4859 17.7162L8.81921 13.7162C8.34576 13.4321 8.19162 12.8173 8.47546 12.3438C8.75953 11.8703 9.37433 11.7162 9.84785 12L16.0002 15.6914L22.1525 12Z" fill="#336AFF"/>
</svg>
