<svg width="32" height="32" viewBox="0 0 32 32" fill="none" xmlns="http://www.w3.org/2000/svg">
<path d="M7.33251 26.6673C6.20792 26.667 5.4351 25.9635 5.34281 24.8859L5.33331 24.666L5.33331 23.3313C5.33331 20.0028 10.5407 17.3246 15.9993 17.3245C21.458 17.3245 26.6666 20.0027 26.6666 23.3313L26.6653 24.666L26.6572 24.8859C26.571 25.892 25.8909 26.5718 24.8858 26.6578L24.6661 26.6673L7.33251 26.6673ZM19.0076 10.3387C19.0073 8.76169 17.6956 7.41952 15.9993 7.41952C14.3031 7.4197 12.9927 8.76179 12.9924 10.3387C12.9924 11.9159 14.3029 13.2591 15.9993 13.2593C17.6958 13.2593 19.0076 11.916 19.0076 10.3387ZM7.4166 24.5818L24.582 24.5818L24.5834 23.3313L24.5779 23.2308C24.5224 22.7041 24.0243 21.8081 22.3807 20.909C20.736 20.0093 18.4192 19.41 15.9993 19.41C13.5794 19.4101 11.2626 20.0092 9.61788 20.909C7.86565 21.8677 7.4166 22.8236 7.4166 23.3313V24.5818ZM21.0841 10.5967C20.9478 13.2414 18.723 15.3448 15.9993 15.3448C13.2757 15.3447 11.0521 13.2413 10.9159 10.5967L10.9091 10.3387C10.9094 7.57474 13.1881 5.33416 15.9993 5.33398C18.8107 5.33398 21.0906 7.57464 21.0909 10.3387L21.0841 10.5967Z" fill="#336AFF"/>
</svg>
