<svg width="22" height="22" viewBox="0 0 22 22" fill="none" xmlns="http://www.w3.org/2000/svg">
<path d="M17.1111 16.4446C17.4793 16.4446 17.7777 16.7431 17.7778 17.1113C17.7778 17.4795 17.4793 17.778 17.1111 17.778H4.22221C3.85402 17.778 3.55554 17.4795 3.55554 17.1113C3.55559 16.7431 3.85405 16.4446 4.22221 16.4446H17.1111Z" fill="#3F78FF"/>
<path d="M7.1111 9.55574C7.47926 9.55574 7.77771 9.85426 7.77776 10.2224L7.77776 15.1113C7.77776 15.4795 7.47929 15.778 7.1111 15.778C6.74291 15.778 6.44443 15.4795 6.44443 15.1113L6.44443 10.2224C6.44448 9.85426 6.74294 9.55574 7.1111 9.55574Z" fill="#3F78FF"/>
<path d="M10.6667 9.55574C11.0348 9.55574 11.3333 9.85426 11.3333 10.2224L11.3333 15.1113C11.3333 15.4795 11.0348 15.778 10.6667 15.778C10.2985 15.778 9.99999 15.4795 9.99999 15.1113L9.99999 10.2224C10 9.85426 10.2985 9.55574 10.6667 9.55574Z" fill="#3F78FF"/>
<path d="M14.2222 9.55574C14.5904 9.55574 14.8888 9.85426 14.8889 10.2224V15.1113C14.8889 15.4795 14.5904 15.778 14.2222 15.778C13.854 15.778 13.5555 15.4795 13.5555 15.1113V10.2224C13.5556 9.85426 13.854 9.55574 14.2222 9.55574Z" fill="#3F78FF"/>
<path fill-rule="evenodd" clip-rule="evenodd" d="M10.3767 3.62171C10.5901 3.51865 10.8458 3.53634 11.0451 3.67379L17.4896 8.11824L17.5434 8.1599C17.8008 8.37885 17.8556 8.76116 17.6597 9.04532C17.4638 9.32933 17.0868 9.41447 16.7908 9.25192L16.7326 9.21546L15.2925 8.22154L15.289 8.2224L6.04426 8.2224L6.03992 8.22154L4.60068 9.21546C4.29761 9.42447 3.88265 9.34835 3.6736 9.04532C3.46463 8.74225 3.54072 8.32728 3.84374 8.11824L10.2882 3.67379L10.3767 3.62171ZM7.97308 6.88907L13.3602 6.88907L10.6667 5.03143L7.97308 6.88907Z" fill="#3F78FF"/>
</svg>
