<svg width="20" height="20" viewBox="0 0 20 20" fill="none" xmlns="http://www.w3.org/2000/svg">
<path d="M11.9271 2.65625C12.0929 2.65625 12.2518 2.72215 12.369 2.83936L16.119 6.58936C16.2362 6.70657 16.3021 6.86549 16.3021 7.03125V16.7708C16.3021 17.116 16.0223 17.3958 15.6771 17.3958H4.63544C4.29026 17.3958 4.01044 17.116 4.01044 16.7708V3.28125C4.01044 2.93607 4.29026 2.65625 4.63544 2.65625H11.9271ZM5.26044 16.1458H15.0521V7.29004L11.6683 3.90625H5.26044V16.1458Z" fill="#797A7B"/>
<path d="M9.76159 6.97104C10.0071 6.77078 10.3693 6.78533 10.5982 7.01417L13.2398 9.65577L12.356 10.5396L10.7813 8.96485V13.3415H9.53128V8.96485L7.95658 10.5396L7.07279 9.65577L9.71439 7.01417L9.76159 6.97104Z" fill="#797A7B"/>
</svg>
