<svg width="16" height="20" viewBox="0 0 16 20" fill="none" xmlns="http://www.w3.org/2000/svg">
<ellipse cx="7.99996" cy="10.0003" rx="6.66667" ry="6.66667" transform="rotate(180 7.99996 10.0003)" fill="white"/>
<path fill-rule="evenodd" clip-rule="evenodd" d="M8.00004 16.6663C11.6819 16.6663 14.6667 13.6816 14.6667 9.99967C14.6667 6.31778 11.6819 3.33301 8.00004 3.33301C4.31814 3.33301 1.33337 6.31778 1.33337 9.99967C1.33337 13.6816 4.31814 16.6663 8.00004 16.6663ZM7.99885 5.95907C8.54832 5.95907 8.99375 6.4045 8.99375 6.95397V10.3626C8.99375 10.9121 8.54832 11.3575 7.99885 11.3575C7.44938 11.3575 7.00395 10.9121 7.00395 10.3626L7.00395 6.95397C7.00395 6.4045 7.44938 5.95907 7.99885 5.95907ZM8.90256 13.1338C8.90256 13.6359 8.49555 14.0429 7.99347 14.0429C7.49139 14.0429 7.08438 13.6359 7.08438 13.1338C7.08438 12.6317 7.49139 12.2247 7.99347 12.2247C8.49555 12.2247 8.90256 12.6317 8.90256 13.1338Z" fill="#F28456"/>
</svg>
