<svg width="60" height="60" viewBox="0 0 60 60" fill="none" xmlns="http://www.w3.org/2000/svg">
<path d="M48.125 46.2502C49.1604 46.2502 49.9999 47.0898 50 48.1252C50 49.1607 49.1605 50.0002 48.125 50.0002H11.875C10.8395 50.0002 10 49.1607 10 48.1252C10.0001 47.0898 10.8396 46.2502 11.875 46.2502H48.125Z" fill="#336AFF"/>
<path d="M20 26.8752C21.0354 26.8752 21.8749 27.7148 21.875 28.7502V42.5002C21.875 43.5357 21.0355 44.3752 20 44.3752C18.9645 44.3752 18.125 43.5357 18.125 42.5002V28.7502C18.1251 27.7148 18.9646 26.8752 20 26.8752Z" fill="#336AFF"/>
<path d="M30 26.8752C31.0354 26.8752 31.8749 27.7148 31.875 28.7502V42.5002C31.875 43.5357 31.0355 44.3752 30 44.3752C28.9645 44.3752 28.125 43.5357 28.125 42.5002V28.7502C28.1251 27.7148 28.9646 26.8752 30 26.8752Z" fill="#336AFF"/>
<path d="M40 26.8752C41.0354 26.8752 41.8749 27.7148 41.875 28.7502V42.5002C41.875 43.5357 41.0355 44.3752 40 44.3752C38.9645 44.3752 38.125 43.5357 38.125 42.5002V28.7502C38.1251 27.7148 38.9646 26.8752 40 26.8752Z" fill="#336AFF"/>
<path fill-rule="evenodd" clip-rule="evenodd" d="M29.1846 10.1858C29.7847 9.89591 30.5038 9.94566 31.0645 10.3322L49.1895 22.8322L49.3408 22.9494C50.0647 23.5652 50.2191 24.6404 49.668 25.4397C49.1169 26.2384 48.0568 26.4779 47.2241 26.0207L47.0605 25.9182L43.0103 23.1228L43.0005 23.1252H16.9995L16.9873 23.1228L12.9395 25.9182C12.0871 26.506 10.92 26.2919 10.332 25.4397C9.7443 24.5873 9.95832 23.4202 10.8105 22.8322L28.9355 10.3322L29.1846 10.1858ZM22.4243 19.3752H37.5757L30 14.1506L22.4243 19.3752Z" fill="#336AFF"/>
</svg>
