<svg width="124" height="100" viewBox="0 0 124 100" fill="none" xmlns="http://www.w3.org/2000/svg">
<g clip-path="url(#clip0_5960_126564)">
<path d="M120.239 94.6875H3.74219V96.3665H120.239V94.6875Z" fill="#C9E5FF"/>
<path d="M121.442 96.3594H2.55469V98.0325H121.442V96.3594Z" fill="#A6D4FF"/>
<path d="M123.079 98.0391H0.914062V99.7181H123.079V98.0391Z" fill="#89C3FA"/>
<path d="M115.413 30.6094H6.46094V94.6861H115.413V30.6094Z" fill="#89C3FA"/>
<path d="M122.815 31.8271H0L62.5248 0.28125L122.815 31.8271Z" fill="#C9E5FF"/>
<path d="M18.6406 27.6217L104.17 27.4378L62.4753 5.85938L18.6406 27.6217Z" fill="#6CA9E3"/>
<path d="M120.209 31.8281H3.21094V34.5277H120.209V31.8281Z" fill="#89C3FA"/>
<path d="M23.4248 30.6094H11.8984V34.7506H23.4248V30.6094Z" fill="#C9E5FF"/>
<path d="M20.8298 34.75H14.4766V94.6854H20.8298V34.75Z" fill="#C9E5FF"/>
<path d="M48.3232 30.6094H36.7969V34.7506H48.3232V30.6094Z" fill="#C9E5FF"/>
<path d="M45.736 34.75H39.3828V94.6854H45.736V34.75Z" fill="#C9E5FF"/>
<path d="M87.4717 30.6094H75.9453V34.7506H87.4717V30.6094Z" fill="#C9E5FF"/>
<path d="M84.8766 34.75H78.5234V94.6854H84.8766V34.75Z" fill="#C9E5FF"/>
<path d="M110.917 30.6094H99.3906V34.7506H110.917V30.6094Z" fill="#C9E5FF"/>
<path d="M108.33 34.75H101.977V94.6854H108.33V34.75Z" fill="#C9E5FF"/>
<path d="M60.42 70.0997H61.8265C63.6806 70.0997 65.4588 70.8329 66.7699 72.1381C68.0809 73.4432 68.8175 75.2134 68.8175 77.0591V94.6861H53V77.4804C53 75.5213 53.7818 73.6425 55.1733 72.2572C56.5648 70.872 58.4521 70.0937 60.42 70.0938V70.0997Z" fill="#6CA9E3"/>
<path d="M51.7388 45.8828H52.4003C53.2744 45.8828 54.1127 46.2285 54.7308 46.8438C55.3489 47.4591 55.6961 48.2936 55.6961 49.1638V57.47H48.2344V49.3655C48.2344 48.9077 48.3251 48.4543 48.5012 48.0314C48.6774 47.6084 48.9357 47.2242 49.2611 46.9008C49.5866 46.5773 49.973 46.3209 50.3981 46.1462C50.8233 45.9715 51.2788 45.882 51.7388 45.8828V45.8828Z" fill="#6CA9E3"/>
<path d="M29.8794 45.8828H30.5409C31.415 45.8828 32.2533 46.2285 32.8714 46.8438C33.4895 47.4591 33.8367 48.2936 33.8367 49.1638V57.47H26.375V49.3655C26.375 48.9077 26.4657 48.4543 26.6419 48.0314C26.8181 47.6084 27.0763 47.2242 27.4018 46.9008C27.7273 46.5773 28.1136 46.3209 28.5388 46.1462C28.9639 45.9715 29.4195 45.882 29.8794 45.8828V45.8828Z" fill="#6CA9E3"/>
<path d="M29.8794 70.7891H30.5409C31.415 70.7891 32.2533 71.1347 32.8714 71.75C33.4895 72.3653 33.8367 73.1999 33.8367 74.07V82.3763H26.375V74.2777C26.3742 73.8193 26.4643 73.3653 26.6402 72.9417C26.816 72.5181 27.0741 72.1332 27.3997 71.8091C27.7252 71.485 28.1119 71.2281 28.5374 71.053C28.9629 70.878 29.419 70.7883 29.8794 70.7891V70.7891Z" fill="#6CA9E3"/>
<path d="M93.1937 45.8828H93.8553C94.7284 45.8844 95.5651 46.2307 96.1819 46.8459C96.7987 47.461 97.1451 48.2946 97.1451 49.1638V57.47H89.6953V49.3655C89.6953 48.4418 90.0639 47.556 90.72 46.9029C91.3761 46.2497 92.2659 45.8828 93.1937 45.8828V45.8828Z" fill="#6CA9E3"/>
<path d="M93.1937 70.7891H93.8553C94.7294 70.7891 95.5677 71.1347 96.1858 71.75C96.8039 72.3653 97.1511 73.1999 97.1511 74.07V82.3763H89.6953V74.2777C89.6945 73.8198 89.7844 73.3663 89.9599 72.9431C90.1354 72.5199 90.3929 72.1352 90.7179 71.8112C91.0428 71.4872 91.4287 71.2301 91.8536 71.0547C92.2784 70.8793 92.7338 70.7891 93.1937 70.7891V70.7891Z" fill="#6CA9E3"/>
<path d="M70.6078 45.8828H71.2693C72.145 45.8828 72.9848 46.2291 73.604 46.8455C74.2232 47.4619 74.5711 48.298 74.5711 49.1697V57.476H67.1094V49.3655C67.1094 48.4418 67.478 47.556 68.134 46.9029C68.7901 46.2497 69.68 45.8828 70.6078 45.8828V45.8828Z" fill="#6CA9E3"/>
<path fill-rule="evenodd" clip-rule="evenodd" d="M61.539 39.832C50.9539 39.832 42.3723 48.4136 42.3723 58.9987C42.3723 69.5838 50.9539 78.1654 61.539 78.1654C72.1241 78.1654 80.7057 69.5838 80.7057 58.9987C80.7057 48.4136 72.1241 39.832 61.539 39.832Z" fill="#01D183"/>
<mask id="mask0_5960_126564" style="mask-type:alpha" maskUnits="userSpaceOnUse" x="42" y="39" width="39" height="40">
<circle cx="61.539" cy="58.9987" r="19.1667" fill="#D80027"/>
</mask>
<g mask="url(#mask0_5960_126564)">
<g clip-path="url(#clip1_5960_126564)">
<path d="M11.2266 23.3633H98.6745V88.6413H11.2266" fill="#D80027"/>
<path d="M11.2266 30.8828H98.6745ZM11.2266 40.9057H98.6745ZM11.2266 50.9694H98.6745ZM11.2266 61.0331H98.6745ZM11.2266 71.0968H98.6745ZM11.2266 81.1605H98.6745Z" fill="black"/>
<path fill-rule="evenodd" clip-rule="evenodd" d="M98.6745 33.399H11.2266V28.3672H98.6745V33.399ZM98.6745 43.4219H11.2266V38.3901H98.6745V43.4219ZM98.6745 53.4856H11.2266V48.4538H98.6745V53.4856ZM98.6745 63.5493H11.2266V58.5175H98.6745V63.5493ZM98.6745 73.613H11.2266V68.5812H98.6745V73.613ZM98.6745 83.6767H11.2266V78.6449H98.6745V83.6767Z" fill="white"/>
<path d="M11.2266 23.3633H61.0719V58.5182H11.2266" fill="#0052B4"/>
<path d="M48.6651 39.0039L49.8949 42.6758L46.7522 40.3639H50.578L47.4354 42.6758L48.6651 39.0039Z" fill="white"/>
<path d="M56.8634 39.0039L58.0931 42.6758L54.9504 40.3639H58.7763L55.6336 42.6758L56.8634 39.0039Z" fill="white"/>
<path d="M44.4295 42.5391L45.6593 46.211L42.5166 43.899H46.3424L43.1998 46.211L44.4295 42.5391Z" fill="white"/>
<path d="M52.7642 42.5391L53.994 46.211L50.8513 43.899H54.6772L51.5345 46.211L52.7642 42.5391Z" fill="white"/>
<path d="M48.6651 45.9375L49.8949 49.6094L46.7522 47.2975H50.578L47.4354 49.6094L48.6651 45.9375Z" fill="white"/>
<path d="M56.8634 45.9375L58.0931 49.6094L54.9504 47.2975H58.7763L55.6336 49.6094L56.8634 45.9375Z" fill="white"/>
<path d="M44.4295 49.4727L45.6593 53.1445L42.5166 50.8326H46.3424L43.1998 53.1445L44.4295 49.4727Z" fill="white"/>
<path d="M52.7642 49.4727L53.994 53.1445L50.8513 50.8326H54.6772L51.5345 53.1445L52.7642 49.4727Z" fill="white"/>
<path d="M48.6651 53.0117L49.8949 56.6836L46.7522 54.3717H50.578L47.4354 56.6836L48.6651 53.0117Z" fill="white"/>
<path d="M56.8634 53.0117L58.0931 56.6836L54.9504 54.3717H58.7763L55.6336 56.6836L56.8634 53.0117Z" fill="white"/>
</g>
</g>
</g>
<defs>
<clipPath id="clip0_5960_126564">
<rect width="123.077" height="100" fill="white"/>
</clipPath>
<clipPath id="clip1_5960_126564">
<rect width="87.4479" height="65.278" fill="white" transform="translate(11.2266 23.3633)"/>
</clipPath>
</defs>
</svg>
