<svg width="100" height="100" viewBox="0 0 100 100" fill="none" xmlns="http://www.w3.org/2000/svg">
<path d="M84.6667 50C84.6667 30.8541 69.1459 15.3333 50 15.3333C30.8541 15.3333 15.3333 30.8541 15.3333 50C15.3333 69.1459 30.8541 84.6667 50 84.6667V85.6667C30.3018 85.6667 14.3333 69.6982 14.3333 50C14.3333 30.3018 30.3018 14.3333 50 14.3333C69.6982 14.3333 85.6667 30.3018 85.6667 50C85.6667 69.6982 69.6982 85.6667 50 85.6667V84.6667C69.1459 84.6667 84.6667 69.1459 84.6667 50Z" fill="black"/>
<path d="M99 50C99 22.938 77.062 1 50 1C22.938 1 1 22.938 1 50C1 77.062 22.938 99 50 99V100C22.3858 100 0 77.6142 0 50C0 22.3858 22.3858 0 50 0C77.6142 0 100 22.3858 100 50C100 77.6142 77.6142 100 50 100V99C77.062 99 99 77.062 99 50Z" fill="black"/>
<path d="M97.6667 50C97.6667 23.6744 76.3256 2.33333 50 2.33333C23.6744 2.33333 2.33333 23.6744 2.33333 50C2.33333 76.3256 23.6744 97.6667 50 97.6667V98.3333C23.3062 98.3333 1.66667 76.6938 1.66667 50C1.66667 23.3062 23.3062 1.66667 50 1.66667C76.6938 1.66667 98.3333 23.3062 98.3333 50C98.3333 76.6938 76.6938 98.3333 50 98.3333V97.6667C76.3256 97.6667 97.6667 76.3256 97.6667 50Z" fill="black"/>
<path d="M49.3561 82.6605C49.5702 82.6646 49.7849 82.6667 50 82.6667V83.3333C49.7805 83.3333 49.5616 83.3304 49.3431 83.3262L49.3561 82.6605ZM50.6566 83.3262C50.4382 83.3304 50.2194 83.3333 50 83.3333V82.6667C50.2151 82.6667 50.4298 82.6646 50.6439 82.6605L50.6566 83.3262ZM46.7962 82.5117C47.2201 82.553 47.6464 82.5861 48.0749 82.611L48.0553 82.9434L48.0557 82.9437L48.0361 83.2757C47.5989 83.2503 47.164 83.2163 46.7314 83.1742L46.7962 82.5117ZM53.2682 83.1742C52.8357 83.2162 52.4008 83.2503 51.9635 83.2757L51.9251 82.611C52.3536 82.5861 52.7799 82.553 53.2038 82.5117L53.2682 83.1742ZM44.2536 82.1631C44.6733 82.2376 45.0957 82.304 45.5208 82.3623L45.4303 83.0221C44.9965 82.9627 44.5654 82.895 44.137 82.819L44.2536 82.1631ZM55.8626 82.819C55.4343 82.895 55.0032 82.9627 54.5693 83.0221L54.4792 82.3623C54.9043 82.304 55.3267 82.2376 55.7464 82.1631L55.8626 82.819ZM41.749 81.6159C42.1614 81.7232 42.5772 81.8226 42.9958 81.9141L42.8535 82.5651C42.4262 82.4718 42.0021 82.37 41.5811 82.2604L41.749 81.6159ZM58.4186 82.2604C57.9976 82.37 57.5735 82.4718 57.1462 82.5651L57.0042 81.9141C57.4228 81.8226 57.8386 81.7232 58.251 81.6159L58.4186 82.2604ZM39.2936 80.8721C39.6968 81.0119 40.1038 81.144 40.514 81.2682L40.3206 81.9056C39.902 81.7787 39.4867 81.644 39.0752 81.5013L39.2936 80.8721ZM60.9245 81.5013C60.5129 81.644 60.0977 81.7788 59.679 81.9056L59.486 81.2682C59.8962 81.144 60.3032 81.0119 60.7064 80.8721L60.9245 81.5013ZM36.9056 79.9365C37.2965 80.1078 37.6915 80.2716 38.0902 80.4277L37.847 81.0482C37.4401 80.8888 37.037 80.7216 36.638 80.5469L36.9056 79.9365ZM63.3617 80.5469C62.9627 80.7216 62.5596 80.8888 62.1527 81.0482L61.9098 80.4277C62.3086 80.2716 62.7035 80.1078 63.0944 79.9365L63.3617 80.5469ZM34.5986 78.8158C34.9752 79.0174 35.3564 79.2119 35.7415 79.3991L35.4499 79.998C35.0568 79.807 34.6681 79.6085 34.2839 79.4027L34.5986 78.8158ZM65.7158 79.4027C65.3316 79.6085 64.9429 79.807 64.5498 79.998L64.2585 79.3991C64.6436 79.2119 65.0248 79.0174 65.4014 78.8158L65.7158 79.4027ZM32.3867 77.5163C32.7464 77.747 33.1107 77.971 33.4798 78.1878L33.3109 78.4749L33.1426 78.762C32.7658 78.5408 32.3935 78.313 32.0264 78.0775L32.3867 77.5163ZM67.9733 78.0775C67.6062 78.313 67.2338 78.5408 66.8571 78.762L66.5202 78.1878C66.8893 77.971 67.2536 77.747 67.6133 77.5163L67.9733 78.0775ZM30.2835 76.0479C30.6241 76.306 30.9698 76.5578 31.3206 76.8027L30.9391 77.349C30.5812 77.099 30.2284 76.8422 29.8809 76.5788L30.2835 76.0479ZM70.1188 76.5785C69.7713 76.8419 69.4186 77.099 69.0605 77.349L68.6794 76.8027C69.0302 76.5578 69.3759 76.3061 69.7165 76.0479L70.1188 76.5785ZM28.3011 74.4193C28.6206 74.7034 28.9458 74.9813 29.2764 75.2529L28.8532 75.7676C28.5159 75.4905 28.1841 75.2069 27.8581 74.917L28.3011 74.4193ZM72.1416 74.917C71.8156 75.2069 71.4838 75.4905 71.1465 75.7676L70.7236 75.2529C71.0542 74.9813 71.3794 74.7034 71.6989 74.4193L72.1416 74.917ZM26.4521 72.641C26.7486 72.9492 27.0512 73.2514 27.3594 73.5479L27.1279 73.7881L27.1113 73.806L26.8975 74.028C26.5829 73.7254 26.2742 73.4168 25.9717 73.1022L26.4521 72.641ZM74.028 73.1022C73.7254 73.4168 73.4168 73.7254 73.1022 74.028L72.8717 73.7884L72.641 73.5479C72.9491 73.2515 73.2515 72.9491 73.5479 72.641L74.028 73.1022ZM24.7471 70.7236C25.0187 71.0542 25.2966 71.3794 25.5807 71.6989L25.0827 72.1416C24.7928 71.8156 24.5092 71.4838 24.2321 71.1465L24.7471 70.7236ZM75.7676 71.1465C75.4905 71.4838 75.2069 71.8156 74.917 72.1416L74.4193 71.6989C74.7034 71.3794 74.9813 71.0542 75.2529 70.7236L75.7676 71.1465ZM23.1973 68.6794C23.4422 69.0302 23.694 69.3759 23.9521 69.7165L23.4212 70.1188C23.1577 69.7713 22.9007 69.4186 22.6507 69.0605L23.1973 68.6794ZM77.349 69.0605C77.099 69.4185 76.8422 69.7713 76.5788 70.1188L76.4961 70.0563L76.0479 69.7165C76.306 69.3759 76.5578 69.0302 76.8027 68.6794L77.349 69.0605ZM21.8122 66.5202C22.029 66.8893 22.253 67.2536 22.4837 67.6133L21.9222 67.9733C21.6867 67.6062 21.4589 67.2338 21.2376 66.8571L21.8122 66.5202ZM78.6579 66.7962L78.762 66.8571C78.5408 67.2338 78.313 67.6062 78.0775 67.9733L77.5163 67.6133C77.747 67.2536 77.971 66.8893 78.1878 66.5202L78.6579 66.7962ZM20.6009 64.2585C20.7881 64.6436 20.9826 65.0248 21.1842 65.4014L20.597 65.7158C20.3912 65.3316 20.1926 64.9429 20.0016 64.5498L20.6009 64.2585ZM79.998 64.5498C79.807 64.9429 79.6085 65.3316 79.4027 65.7158L78.8158 65.4014C79.0174 65.0248 79.2119 64.6436 79.3991 64.2585L79.998 64.5498ZM19.5723 61.9098C19.7285 62.3086 19.8922 62.7035 20.0635 63.0944L19.4528 63.3617C19.278 62.9627 19.1109 62.5596 18.9515 62.1527L19.5723 61.9098ZM81.0482 62.1527C80.8888 62.5596 80.7216 62.9627 80.5469 63.3617L79.9365 63.0944C80.1078 62.7035 80.2716 62.3086 80.4277 61.9098L81.0482 62.1527ZM18.7318 59.486C18.8561 59.8962 18.9881 60.3032 19.1279 60.7064L18.4984 60.9245C18.3557 60.5129 18.2209 60.0977 18.0941 59.679L18.7318 59.486ZM81.9056 59.679C81.7788 60.0977 81.644 60.5129 81.5013 60.9245L81.1869 60.8158L80.8721 60.7064C81.0119 60.3032 81.144 59.8962 81.2682 59.486L81.9056 59.679ZM18.0859 57.0042C18.1774 57.4228 18.2768 57.8386 18.3841 58.251L17.7393 58.4186C17.6297 57.9976 17.5279 57.5735 17.4346 57.1462L18.0859 57.0042ZM82.5651 57.1462C82.4718 57.5735 82.37 57.9976 82.2604 58.4186L81.6159 58.251C81.7232 57.8386 81.8226 57.4228 81.9141 57.0042L82.5651 57.1462ZM17.6377 54.4792C17.696 54.9043 17.7624 55.3267 17.8369 55.7464L17.1807 55.8626C17.1047 55.4343 17.037 55.0031 16.9775 54.5693L17.6377 54.4792ZM83.0221 54.5693C82.9627 55.0032 82.895 55.4343 82.819 55.8626L82.1631 55.7464C82.2376 55.3267 82.304 54.9043 82.3623 54.4792L83.0221 54.5693ZM17.389 51.9251C17.4139 52.3536 17.447 52.7799 17.4883 53.2038L17.1562 53.236L17.1566 53.2363L16.8255 53.2682C16.7834 52.8357 16.7494 52.4008 16.724 51.9635L17.389 51.9251ZM83.2757 51.9635C83.2503 52.4008 83.2162 52.8357 83.1742 53.2682L82.8434 53.2363L82.5117 53.2038C82.553 52.7799 82.5861 52.3536 82.611 51.9251L83.2757 51.9635ZM16.6667 50C16.6667 49.7805 16.6693 49.5616 16.6735 49.3431L17.3395 49.3561C17.3354 49.5702 17.3333 49.7849 17.3333 50C17.3333 50.2151 17.3354 50.4298 17.3395 50.6439L16.6735 50.6566C16.6693 50.4382 16.6667 50.2194 16.6667 50ZM83.3333 50C83.3333 50.2194 83.3304 50.4382 83.3262 50.6566L82.6605 50.6439C82.6646 50.4298 82.6667 50.2151 82.6667 50C82.6667 49.7849 82.6646 49.5702 82.6605 49.3561L83.3262 49.3431C83.3304 49.5616 83.3333 49.7805 83.3333 50ZM17.4883 46.7962C17.447 47.2201 17.4139 47.6464 17.389 48.0749L16.724 48.0361C16.7494 47.5989 16.7834 47.164 16.8255 46.7314L17.4883 46.7962ZM83.1742 46.7314C83.2163 47.164 83.2503 47.5989 83.2757 48.0361L82.9437 48.0557L82.9434 48.0553L82.611 48.0749C82.5861 47.6464 82.553 47.2201 82.5117 46.7962L83.1742 46.7314ZM17.1807 44.137L17.8369 44.2536C17.7624 44.6733 17.696 45.0957 17.6377 45.5208L16.9775 45.4303C17.0198 45.1225 17.066 44.8159 17.1165 44.5107L17.1807 44.137ZM82.819 44.137C82.895 44.5654 82.9627 44.9965 83.0221 45.4303L82.3623 45.5208C82.304 45.0957 82.2376 44.6733 82.1631 44.2536L82.819 44.137ZM18.3841 41.749C18.2768 42.1614 18.1774 42.5772 18.0859 42.9958L17.4346 42.8535C17.5279 42.4262 17.6297 42.0021 17.7393 41.5811L18.3841 41.749ZM82.2604 41.5811C82.37 42.0021 82.4718 42.4262 82.5651 42.8535L81.9141 42.9958C81.8226 42.5772 81.7232 42.1614 81.6159 41.749L82.2604 41.5811ZM19.1279 39.2936C18.9881 39.6968 18.8561 40.1038 18.7318 40.514L18.0941 40.3206C18.2209 39.902 18.3557 39.4867 18.4984 39.0752L19.1279 39.2936ZM81.5013 39.0752C81.644 39.4867 81.7787 39.902 81.9056 40.3206L81.2682 40.514C81.144 40.1038 81.0119 39.6968 80.8721 39.2936L81.5013 39.0752ZM20.0635 36.9056C19.8922 37.2965 19.7285 37.6915 19.5723 38.0902L18.9515 37.847C19.1109 37.4401 19.278 37.037 19.4528 36.638L20.0635 36.9056ZM80.5469 36.638C80.7216 37.037 80.8888 37.4401 81.0482 37.847L80.7383 37.9688L80.738 37.9684L80.4277 38.0902C80.2716 37.6914 80.1078 37.2965 79.9365 36.9056L80.5469 36.638ZM21.1842 34.5986C20.9826 34.9752 20.7881 35.3564 20.6009 35.7415L20.0016 35.4499C20.1926 35.0568 20.3912 34.6681 20.597 34.2839L21.1842 34.5986ZM79.4027 34.2839C79.6085 34.6681 79.807 35.0568 79.998 35.4499L79.3991 35.7415C79.2119 35.3564 79.0174 34.9752 78.8158 34.5986L79.4027 34.2839ZM21.9225 32.0267L22.4837 32.3867C22.253 32.7464 22.029 33.1107 21.8122 33.4798L21.5247 33.3109L21.2376 33.1426C21.4589 32.7658 21.6867 32.3934 21.9222 32.0264L21.9225 32.0267ZM78.0775 32.0264C78.313 32.3935 78.5408 32.7658 78.762 33.1426L78.4753 33.3112L78.4749 33.3109L78.1878 33.4798C77.971 33.1107 77.747 32.7464 77.5163 32.3867L78.0775 32.0264ZM23.9521 30.2835C23.694 30.6241 23.4422 30.9698 23.1973 31.3206L22.6507 30.9391C22.9007 30.5812 23.1575 30.2284 23.4209 29.8809L23.9521 30.2835ZM76.5785 29.8809C76.8419 30.2284 77.099 30.5811 77.349 30.9391L76.8027 31.3206C76.5578 30.9698 76.3061 30.6241 76.0479 30.2835L76.5785 29.8809ZM25.5807 28.3011C25.2966 28.6206 25.0187 28.9458 24.7471 29.2764L24.2321 28.8532C24.5092 28.5159 24.7928 28.1841 25.0827 27.8581L25.5807 28.3011ZM74.917 27.8581C75.2069 28.1841 75.4905 28.5159 75.7676 28.8532L75.2529 29.2764C74.9813 28.9458 74.7034 28.6206 74.4193 28.3011L74.917 27.8581ZM27.1283 26.2116L27.3591 26.4521C27.0508 26.7486 26.7486 27.0512 26.4521 27.3594L25.9717 26.8975C26.2742 26.5829 26.5829 26.2742 26.8975 25.9717L27.1283 26.2116ZM73.1022 25.9717C73.4168 26.2742 73.7254 26.5829 74.028 26.8975L73.7884 27.1283L73.7881 27.1279L73.5479 27.3591C73.2515 27.0509 72.9491 26.7485 72.641 26.4521L73.1022 25.9717ZM29.2764 24.7471C28.9458 25.0187 28.6206 25.2966 28.3011 25.5807L27.8581 25.0827C28.1841 24.7928 28.5159 24.5092 28.8532 24.2321L29.2764 24.7471ZM71.1465 24.2321C71.4838 24.5092 71.8156 24.7928 72.1416 25.0827L71.6989 25.5807C71.3794 25.2966 71.0542 25.0187 70.7236 24.7471L71.1465 24.2321ZM31.3206 23.1973C30.9698 23.4422 30.6241 23.694 30.2835 23.9521L29.8809 23.4212C30.2284 23.1577 30.5811 22.9007 30.9391 22.6507L31.3206 23.1973ZM69.0605 22.6507C69.4185 22.9007 69.7713 23.1575 70.1188 23.4209L69.918 23.6865L69.9176 23.6862L69.7165 23.9521C69.3759 23.694 69.0302 23.4422 68.6794 23.1973L69.0605 22.6507ZM33.292 21.4925L33.4798 21.8122C33.1107 22.029 32.7464 22.253 32.3867 22.4837L32.0267 21.9225L32.0264 21.9222C32.3934 21.6867 32.7658 21.4589 33.1426 21.2376L33.292 21.4925ZM66.8571 21.2376C67.2338 21.4589 67.6062 21.6867 67.9733 21.9222L67.6133 22.4837C67.2536 22.253 66.8893 22.029 66.5202 21.8122L66.708 21.4925L66.8571 21.2376ZM35.7415 20.6009C35.3564 20.7881 34.9752 20.9826 34.5986 21.1842L34.2839 20.597C34.6681 20.3912 35.0568 20.1926 35.4499 20.0016L35.7415 20.6009ZM64.5498 20.0016C64.9429 20.1926 65.3316 20.3912 65.7158 20.597L65.4014 21.1842C65.0248 20.9826 64.6436 20.7881 64.2585 20.6009L64.5498 20.0016ZM37.9688 19.2617L38.0902 19.5723C37.6914 19.7285 37.2965 19.8922 36.9056 20.0635L36.638 19.4528C37.037 19.278 37.4401 19.1109 37.847 18.9515L37.9688 19.2617ZM62.1527 18.9515C62.5596 19.1109 62.9627 19.278 63.3617 19.4528L63.0944 20.0635C62.7035 19.8922 62.3086 19.7285 61.9098 19.5723L62.1527 18.9515ZM40.514 18.7318C40.1038 18.8561 39.6968 18.9881 39.2936 19.1279L39.0752 18.4984C39.4867 18.3557 39.902 18.2209 40.3206 18.0941L40.514 18.7318ZM59.679 18.0941C60.0977 18.2209 60.5129 18.3557 60.9245 18.4984L60.8158 18.8132L60.8154 18.8128L60.7064 19.1279C60.3032 18.9881 59.8962 18.8561 59.486 18.7318L59.679 18.0941ZM42.9958 18.0859C42.5772 18.1774 42.1614 18.2768 41.749 18.3841L41.5811 17.7393C42.0021 17.6297 42.4262 17.5279 42.8535 17.4346L42.9958 18.0859ZM57.1462 17.4346C57.5735 17.5279 57.9976 17.6297 58.4186 17.7393L58.251 18.3841C57.8386 18.2768 57.4228 18.1774 57.0042 18.0859L57.1462 17.4346ZM45.5208 17.6377C45.0957 17.696 44.6733 17.7624 44.2536 17.8369L44.137 17.1807C44.5654 17.1047 44.9965 17.037 45.4303 16.9775L45.5208 17.6377ZM54.5693 16.9775C55.0031 17.037 55.4343 17.1047 55.8626 17.1807L55.7464 17.8369C55.3267 17.7624 54.9043 17.696 54.4792 17.6377L54.5693 16.9775ZM48.0557 17.0563L48.0749 17.389C47.6464 17.4139 47.2201 17.447 46.7962 17.4883L46.7314 16.8255C47.164 16.7834 47.5989 16.7494 48.0361 16.724L48.0557 17.0563ZM51.9635 16.724C52.4008 16.7494 52.8357 16.7834 53.2682 16.8255L53.2393 17.127L53.2038 17.4883C52.7799 17.447 52.3536 17.4139 51.9251 17.389L51.9635 16.724ZM50 16.6667C50.2194 16.6667 50.4382 16.6693 50.6566 16.6735L50.6439 17.3395C50.4298 17.3354 50.2151 17.3333 50 17.3333C49.7849 17.3333 49.5702 17.3354 49.3561 17.3395L49.3431 16.6735C49.5616 16.6693 49.7805 16.6667 50 16.6667Z" fill="black"/>
<path d="M33.291 45.6667H32.1126L30.6185 43.6029C30.5078 43.6072 30.4178 43.6094 30.3483 43.6094C30.3201 43.6094 30.2897 43.6094 30.2572 43.6094C30.2246 43.6072 30.191 43.605 30.1562 43.6029V44.8854C30.1562 45.1632 30.1866 45.3357 30.2474 45.403C30.3299 45.4985 30.4536 45.5462 30.6185 45.5462H30.791V45.6667H28.8997V45.5462H29.0658C29.2524 45.5462 29.3859 45.4855 29.4661 45.3639C29.5117 45.2967 29.5345 45.1372 29.5345 44.8854V42.0339C29.5345 41.7561 29.5041 41.5836 29.4434 41.5163C29.3587 41.4208 29.2329 41.373 29.0658 41.373H28.8997V41.2526H30.5078C30.9766 41.2526 31.3216 41.2873 31.543 41.3568C31.7665 41.424 31.9553 41.5499 32.1094 41.7344C32.2656 41.9167 32.3438 42.1348 32.3438 42.3887C32.3438 42.6599 32.2548 42.8954 32.0768 43.0951C31.901 43.2947 31.6276 43.4358 31.2565 43.5182L32.168 44.7845C32.3763 45.0753 32.5553 45.2684 32.7051 45.3639C32.8548 45.4594 33.0501 45.5202 33.291 45.5462V45.6667ZM30.1562 43.3978C30.1975 43.3978 30.2333 43.3989 30.2637 43.401C30.2941 43.401 30.319 43.401 30.3385 43.401C30.7596 43.401 31.0764 43.3099 31.2891 43.1276C31.5039 42.9453 31.6113 42.7131 31.6113 42.431C31.6113 42.1554 31.5245 41.9319 31.3509 41.7604C31.1795 41.5868 30.9516 41.5 30.6673 41.5C30.5415 41.5 30.3711 41.5206 30.1562 41.5619V43.3978Z" fill="black"/>
<path d="M33.9421 43.8079C33.9399 44.2507 34.0473 44.5979 34.2643 44.8496C34.4813 45.1013 34.7363 45.2272 35.0293 45.2272C35.2246 45.2272 35.3939 45.174 35.5371 45.0677C35.6825 44.9592 35.804 44.7747 35.9017 44.5143L36.0026 44.5794C35.957 44.8767 35.8247 45.148 35.6055 45.3932C35.3863 45.6363 35.1118 45.7578 34.7819 45.7578C34.4238 45.7578 34.1168 45.6189 33.8607 45.3411C33.6068 45.0612 33.4798 44.6858 33.4798 44.2148C33.4798 43.7049 33.61 43.3077 33.8704 43.0234C34.133 42.737 34.4618 42.5938 34.8568 42.5938C35.191 42.5938 35.4655 42.7044 35.6803 42.9258C35.8952 43.145 36.0026 43.439 36.0026 43.8079H33.9421ZM33.9421 43.6191H35.3223C35.3114 43.4282 35.2886 43.2936 35.2539 43.2155C35.1997 43.094 35.1183 42.9985 35.0098 42.929C34.9034 42.8596 34.7917 42.8249 34.6745 42.8249C34.4944 42.8249 34.3327 42.8954 34.1895 43.0365C34.0484 43.1754 33.9659 43.3696 33.9421 43.6191Z" fill="black"/>
<path d="M37.2005 44.5794C37.0182 44.4905 36.8783 44.3668 36.7806 44.2083C36.6829 44.0477 36.6341 43.8709 36.6341 43.6777C36.6341 43.3826 36.7448 43.1287 36.9661 42.916C37.1897 42.7033 37.475 42.597 37.8223 42.597C38.1066 42.597 38.3529 42.6665 38.5612 42.8053H39.1927C39.286 42.8053 39.3403 42.8086 39.3555 42.8151C39.3707 42.8194 39.3815 42.8281 39.388 42.8411C39.401 42.8607 39.4076 42.8954 39.4076 42.9453C39.4076 43.0017 39.4021 43.0408 39.3913 43.0625C39.3848 43.0734 39.3728 43.082 39.3555 43.0885C39.3403 43.0951 39.286 43.0983 39.1927 43.0983H38.8053C38.9269 43.2546 38.9876 43.4542 38.9876 43.6973C38.9876 43.975 38.8813 44.2127 38.6686 44.4102C38.4559 44.6076 38.1706 44.7064 37.8125 44.7064C37.6649 44.7064 37.5141 44.6847 37.36 44.6413C37.2645 44.7237 37.1994 44.7964 37.1647 44.8594C37.1322 44.9201 37.1159 44.9722 37.1159 45.0156C37.1159 45.0525 37.1332 45.0883 37.168 45.123C37.2049 45.1578 37.2754 45.1827 37.3796 45.1979C37.4403 45.2066 37.5922 45.2142 37.8353 45.2207C38.2823 45.2316 38.572 45.2467 38.7044 45.2663C38.9062 45.2945 39.0668 45.3694 39.1862 45.4909C39.3077 45.6124 39.3685 45.7622 39.3685 45.9401C39.3685 46.1853 39.2535 46.4154 39.0234 46.6302C38.6849 46.947 38.2433 47.1055 37.6986 47.1055C37.2797 47.1055 36.926 47.0111 36.6374 46.8223C36.4746 46.7138 36.3932 46.6009 36.3932 46.4837C36.3932 46.4316 36.4052 46.3796 36.429 46.3275C36.4659 46.2472 36.5419 46.1354 36.6569 45.9922C36.6721 45.9727 36.7828 45.8555 36.9889 45.6406C36.8761 45.5734 36.7958 45.5137 36.748 45.4616C36.7025 45.4073 36.6797 45.3466 36.6797 45.2793C36.6797 45.2033 36.7101 45.1144 36.7708 45.0124C36.8338 44.9104 36.977 44.7661 37.2005 44.5794ZM37.7669 42.7533C37.6063 42.7533 37.4718 42.8173 37.3633 42.9453C37.2548 43.0734 37.2005 43.2697 37.2005 43.5345C37.2005 43.8774 37.2743 44.1432 37.4219 44.332C37.5347 44.4753 37.678 44.5469 37.8516 44.5469C38.0165 44.5469 38.1521 44.485 38.2585 44.3613C38.3648 44.2376 38.418 44.0434 38.418 43.7786C38.418 43.4336 38.3431 43.1634 38.1934 42.9681C38.0827 42.8249 37.9405 42.7533 37.7669 42.7533ZM37.168 45.6667C37.066 45.7773 36.9889 45.8804 36.9369 45.9759C36.8848 46.0714 36.8587 46.1593 36.8587 46.2396C36.8587 46.3438 36.9217 46.4349 37.0475 46.513C37.2645 46.6476 37.5781 46.7148 37.9883 46.7148C38.3789 46.7148 38.6665 46.6454 38.8509 46.5065C39.0375 46.3698 39.1309 46.2233 39.1309 46.0671C39.1309 45.9542 39.0755 45.8739 38.9648 45.8262C38.852 45.7784 38.6285 45.7502 38.2943 45.7415C37.806 45.7285 37.4306 45.7036 37.168 45.6667Z" fill="black"/>
<path d="M40.4948 41.0378C40.5859 41.0378 40.663 41.0703 40.7259 41.1354C40.791 41.1984 40.8236 41.2754 40.8236 41.3665C40.8236 41.4577 40.791 41.5358 40.7259 41.6009C40.663 41.666 40.5859 41.6986 40.4948 41.6986C40.4036 41.6986 40.3255 41.666 40.2604 41.6009C40.1953 41.5358 40.1628 41.4577 40.1628 41.3665C40.1628 41.2754 40.1942 41.1984 40.2572 41.1354C40.3223 41.0703 40.4015 41.0378 40.4948 41.0378ZM40.765 42.597V44.9928C40.765 45.1795 40.778 45.3043 40.804 45.3672C40.8322 45.428 40.8724 45.4735 40.9245 45.5039C40.9787 45.5343 41.0764 45.5495 41.2174 45.5495V45.6667H39.7689V45.5495C39.9143 45.5495 40.0119 45.5354 40.0619 45.5072C40.1118 45.479 40.1508 45.4323 40.179 45.3672C40.2094 45.3021 40.2246 45.1773 40.2246 44.9928V43.8438C40.2246 43.5204 40.2148 43.311 40.1953 43.2155C40.1801 43.1461 40.1562 43.0983 40.1237 43.0723C40.0911 43.0441 40.0467 43.0299 39.9902 43.0299C39.9295 43.0299 39.8557 43.0462 39.7689 43.0788L39.7233 42.9616L40.6217 42.597H40.765Z" fill="black"/>
<path d="M43.5189 42.597V43.6126H43.4115C43.329 43.2936 43.2227 43.0766 43.0924 42.9616C42.9644 42.8466 42.8006 42.7891 42.6009 42.7891C42.449 42.7891 42.3264 42.8292 42.2331 42.9095C42.1398 42.9898 42.0931 43.0788 42.0931 43.1764C42.0931 43.298 42.1278 43.4021 42.1973 43.4889C42.2645 43.5779 42.4013 43.6723 42.6074 43.7721L43.0827 44.0033C43.5232 44.2181 43.7435 44.5013 43.7435 44.8529C43.7435 45.1241 43.6404 45.3433 43.4342 45.5104C43.2303 45.6754 43.0013 45.7578 42.7474 45.7578C42.5651 45.7578 42.3568 45.7253 42.1224 45.6602C42.0508 45.6385 41.9922 45.6276 41.9466 45.6276C41.8967 45.6276 41.8576 45.6558 41.8294 45.7122H41.722V44.6478H41.8294C41.8902 44.9516 42.0063 45.1806 42.1777 45.3346C42.3492 45.4887 42.5412 45.5658 42.7539 45.5658C42.9036 45.5658 43.0252 45.5224 43.1185 45.4355C43.214 45.3466 43.2617 45.2402 43.2617 45.1165C43.2617 44.9668 43.2086 44.8409 43.1022 44.7389C42.998 44.6369 42.7886 44.5078 42.474 44.3516C42.1593 44.1953 41.9531 44.0543 41.8555 43.9284C41.7578 43.8047 41.709 43.6484 41.709 43.4596C41.709 43.2144 41.7925 43.0093 41.9596 42.8444C42.1289 42.6795 42.347 42.597 42.6139 42.597C42.7311 42.597 42.8733 42.622 43.0404 42.6719C43.151 42.7044 43.2248 42.7207 43.2617 42.7207C43.2964 42.7207 43.3236 42.7131 43.3431 42.6979C43.3626 42.6827 43.3854 42.6491 43.4115 42.597H43.5189Z" fill="black"/>
<path d="M45.0553 41.7051V42.6849H45.752V42.9128H45.0553V44.8464C45.0553 45.0395 45.0825 45.1697 45.1367 45.237C45.1931 45.3043 45.2648 45.3379 45.3516 45.3379C45.4232 45.3379 45.4926 45.3162 45.5599 45.2728C45.6272 45.2272 45.6793 45.161 45.7161 45.0742H45.8431C45.7671 45.2869 45.6597 45.4475 45.5208 45.556C45.3819 45.6623 45.2387 45.7155 45.0911 45.7155C44.9913 45.7155 44.8937 45.6884 44.7982 45.6341C44.7027 45.5777 44.6322 45.4985 44.5866 45.3965C44.541 45.2923 44.5182 45.1328 44.5182 44.918V42.9128H44.0462V42.8053C44.1656 42.7576 44.2871 42.6773 44.4108 42.5645C44.5367 42.4494 44.6484 42.3138 44.7461 42.1576C44.796 42.0751 44.8655 41.9243 44.9544 41.7051H45.0553Z" fill="black"/>
<path d="M46.9173 42.597V43.2676C47.1669 42.8205 47.423 42.597 47.6855 42.597C47.8049 42.597 47.9036 42.6339 47.9818 42.7077C48.0599 42.7793 48.099 42.8629 48.099 42.9583C48.099 43.043 48.0707 43.1146 48.0143 43.1732C47.9579 43.2318 47.8906 43.2611 47.8125 43.2611C47.7365 43.2611 47.6508 43.2242 47.5553 43.1504C47.462 43.0744 47.3926 43.0365 47.347 43.0365C47.3079 43.0365 47.2656 43.0582 47.2201 43.1016C47.1224 43.1905 47.0215 43.337 46.9173 43.541V44.9701C46.9173 45.135 46.9379 45.2598 46.9792 45.3444C47.0074 45.403 47.0573 45.4518 47.1289 45.4909C47.2005 45.5299 47.3036 45.5495 47.4382 45.5495V45.6667H45.9115V45.5495C46.0634 45.5495 46.1762 45.5256 46.25 45.4779C46.3043 45.4431 46.3422 45.3878 46.3639 45.3119C46.3748 45.275 46.3802 45.1697 46.3802 44.9961V43.8405C46.3802 43.4933 46.3726 43.2871 46.3574 43.222C46.3444 43.1547 46.3184 43.1059 46.2793 43.0755C46.2424 43.0451 46.1957 43.0299 46.1393 43.0299C46.072 43.0299 45.9961 43.0462 45.9115 43.0788L45.8789 42.9616L46.7806 42.597H46.9173Z" fill="black"/>
<path d="M49.9544 45.237C49.6484 45.4735 49.4564 45.6102 49.3783 45.6471C49.2611 45.7014 49.1363 45.7285 49.0039 45.7285C48.7977 45.7285 48.6274 45.658 48.4928 45.5169C48.3605 45.3759 48.2943 45.1903 48.2943 44.9603C48.2943 44.8149 48.3268 44.689 48.3919 44.5827C48.4809 44.4351 48.635 44.2962 48.8542 44.166C49.0755 44.0358 49.4423 43.8774 49.9544 43.6908V43.5736C49.9544 43.2763 49.9067 43.0723 49.8112 42.9616C49.7179 42.8509 49.5812 42.7956 49.401 42.7956C49.2643 42.7956 49.1558 42.8325 49.0755 42.9062C48.9931 42.98 48.9518 43.0647 48.9518 43.1602L48.9583 43.349C48.9583 43.4488 48.9323 43.5258 48.8802 43.5801C48.8303 43.6343 48.7641 43.6615 48.6816 43.6615C48.6013 43.6615 48.5352 43.6332 48.4831 43.5768C48.4332 43.5204 48.4082 43.4434 48.4082 43.3457C48.4082 43.1591 48.5037 42.9876 48.6947 42.8314C48.8856 42.6751 49.1536 42.597 49.4987 42.597C49.7635 42.597 49.9805 42.6415 50.1497 42.7305C50.2778 42.7977 50.3722 42.903 50.4329 43.0462C50.472 43.1395 50.4915 43.3305 50.4915 43.6191V44.6315C50.4915 44.9158 50.497 45.0905 50.5078 45.1556C50.5187 45.2185 50.536 45.2609 50.5599 45.2826C50.5859 45.3043 50.6152 45.3151 50.6478 45.3151C50.6825 45.3151 50.7129 45.3075 50.7389 45.2923C50.7845 45.2641 50.8724 45.1849 51.0026 45.0547V45.237C50.7596 45.5625 50.5273 45.7253 50.306 45.7253C50.1997 45.7253 50.115 45.6884 50.0521 45.6146C49.9892 45.5408 49.9566 45.4149 49.9544 45.237ZM49.9544 45.0254V43.8893C49.6267 44.0195 49.4151 44.1118 49.3197 44.166C49.1482 44.2615 49.0256 44.3613 48.9518 44.4655C48.878 44.5697 48.8411 44.6836 48.8411 44.8073C48.8411 44.9635 48.8878 45.0938 48.9811 45.1979C49.0744 45.2999 49.1819 45.3509 49.3034 45.3509C49.4683 45.3509 49.6853 45.2424 49.9544 45.0254Z" fill="black"/>
<path d="M52.0931 41.7051V42.6849H52.7897V42.9128H52.0931V44.8464C52.0931 45.0395 52.1202 45.1697 52.1745 45.237C52.2309 45.3043 52.3025 45.3379 52.3893 45.3379C52.4609 45.3379 52.5304 45.3162 52.5977 45.2728C52.6649 45.2272 52.717 45.161 52.7539 45.0742H52.8809C52.8049 45.2869 52.6975 45.4475 52.5586 45.556C52.4197 45.6623 52.2765 45.7155 52.1289 45.7155C52.0291 45.7155 51.9314 45.6884 51.8359 45.6341C51.7405 45.5777 51.6699 45.4985 51.6244 45.3965C51.5788 45.2923 51.556 45.1328 51.556 44.918V42.9128H51.084V42.8053C51.2033 42.7576 51.3249 42.6773 51.4486 42.5645C51.5744 42.4494 51.6862 42.3138 51.7839 42.1576C51.8338 42.0751 51.9032 41.9243 51.9922 41.7051H52.0931Z" fill="black"/>
<path d="M53.8411 41.0378C53.9323 41.0378 54.0093 41.0703 54.0723 41.1354C54.1374 41.1984 54.1699 41.2754 54.1699 41.3665C54.1699 41.4577 54.1374 41.5358 54.0723 41.6009C54.0093 41.666 53.9323 41.6986 53.8411 41.6986C53.75 41.6986 53.6719 41.666 53.6068 41.6009C53.5417 41.5358 53.5091 41.4577 53.5091 41.3665C53.5091 41.2754 53.5406 41.1984 53.6035 41.1354C53.6686 41.0703 53.7478 41.0378 53.8411 41.0378ZM54.1113 42.597V44.9928C54.1113 45.1795 54.1244 45.3043 54.1504 45.3672C54.1786 45.428 54.2188 45.4735 54.2708 45.5039C54.3251 45.5343 54.4227 45.5495 54.5638 45.5495V45.6667H53.1152V45.5495C53.2606 45.5495 53.3583 45.5354 53.4082 45.5072C53.4581 45.479 53.4972 45.4323 53.5254 45.3672C53.5558 45.3021 53.571 45.1773 53.571 44.9928V43.8438C53.571 43.5204 53.5612 43.311 53.5417 43.2155C53.5265 43.1461 53.5026 43.0983 53.4701 43.0723C53.4375 43.0441 53.393 43.0299 53.3366 43.0299C53.2758 43.0299 53.202 43.0462 53.1152 43.0788L53.0697 42.9616L53.9681 42.597H54.1113Z" fill="black"/>
<path d="M56.3965 42.597C56.8479 42.597 57.2103 42.7684 57.4837 43.1113C57.7159 43.4043 57.832 43.7407 57.832 44.1204C57.832 44.3874 57.768 44.6576 57.64 44.931C57.5119 45.2044 57.3351 45.4106 57.1094 45.5495C56.8859 45.6884 56.6363 45.7578 56.3607 45.7578C55.9115 45.7578 55.5545 45.5788 55.2897 45.2207C55.0662 44.9191 54.9544 44.5805 54.9544 44.2051C54.9544 43.9316 55.0217 43.6604 55.1562 43.3913C55.293 43.12 55.472 42.9204 55.6934 42.7923C55.9147 42.6621 56.1491 42.597 56.3965 42.597ZM56.2956 42.8086C56.1806 42.8086 56.0645 42.8433 55.9473 42.9128C55.8322 42.98 55.7389 43.0994 55.6673 43.2708C55.5957 43.4423 55.5599 43.6625 55.5599 43.9316C55.5599 44.3657 55.6456 44.74 55.8171 45.0547C55.9907 45.3694 56.2185 45.5267 56.5007 45.5267C56.7112 45.5267 56.8848 45.4399 57.0215 45.2663C57.1582 45.0927 57.2266 44.7943 57.2266 44.3711C57.2266 43.8416 57.1126 43.4249 56.8848 43.1211C56.7307 42.9128 56.5343 42.8086 56.2956 42.8086Z" fill="black"/>
<path d="M59.1406 43.2285C59.49 42.8075 59.8231 42.597 60.14 42.597C60.3027 42.597 60.4427 42.6382 60.5599 42.7207C60.6771 42.801 60.7704 42.9345 60.8398 43.1211C60.8876 43.2513 60.9115 43.451 60.9115 43.7201V44.9928C60.9115 45.1816 60.9267 45.3097 60.957 45.377C60.9809 45.4312 61.0189 45.4735 61.071 45.5039C61.1252 45.5343 61.224 45.5495 61.3672 45.5495V45.6667H59.8926V45.5495H59.9544C60.0933 45.5495 60.1899 45.5289 60.2441 45.4876C60.3006 45.4442 60.3396 45.3813 60.3613 45.2988C60.37 45.2663 60.3744 45.1643 60.3744 44.9928V43.7721C60.3744 43.5009 60.3385 43.3045 60.2669 43.1829C60.1975 43.0592 60.0792 42.9974 59.9121 42.9974C59.6539 42.9974 59.3967 43.1385 59.1406 43.4206V44.9928C59.1406 45.1947 59.1526 45.3194 59.1764 45.3672C59.2068 45.4301 59.248 45.4768 59.3001 45.5072C59.3544 45.5354 59.4629 45.5495 59.6257 45.5495V45.6667H58.151V45.5495H58.2161C58.3681 45.5495 58.4701 45.5115 58.5221 45.4355C58.5764 45.3574 58.6035 45.2099 58.6035 44.9928V43.8861C58.6035 43.528 58.5948 43.3099 58.5775 43.2318C58.5623 43.1536 58.5373 43.1005 58.5026 43.0723C58.4701 43.0441 58.4256 43.0299 58.3691 43.0299C58.3084 43.0299 58.2357 43.0462 58.151 43.0788L58.1022 42.9616L59.0007 42.597H59.1406V43.2285Z" fill="black"/>
<path d="M62.9753 41.2526H64.1732L66.8717 44.5632V42.0176C66.8717 41.7463 66.8414 41.577 66.7806 41.5098C66.7003 41.4186 66.5733 41.373 66.3997 41.373H66.2467V41.2526H67.7832V41.373H67.627C67.4403 41.373 67.3079 41.4295 67.2298 41.5423C67.1821 41.6118 67.1582 41.7702 67.1582 42.0176V45.7383H67.041L64.1309 42.1836V44.9017C64.1309 45.173 64.1602 45.3422 64.2188 45.4095C64.3012 45.5007 64.4282 45.5462 64.5996 45.5462H64.7559V45.6667H63.2194V45.5462H63.3724C63.5612 45.5462 63.6947 45.4898 63.7728 45.377C63.8205 45.3075 63.8444 45.1491 63.8444 44.9017V41.832C63.7164 41.6823 63.6187 41.5836 63.5514 41.5358C63.4863 41.4881 63.3898 41.4436 63.2617 41.4023C63.1988 41.3828 63.1033 41.373 62.9753 41.373V41.2526Z" fill="black"/>
<path d="M69.5475 42.597C69.9989 42.597 70.3613 42.7684 70.6348 43.1113C70.867 43.4043 70.9831 43.7407 70.9831 44.1204C70.9831 44.3874 70.9191 44.6576 70.791 44.931C70.663 45.2044 70.4861 45.4106 70.2604 45.5495C70.0369 45.6884 69.7873 45.7578 69.5117 45.7578C69.0625 45.7578 68.7055 45.5788 68.4408 45.2207C68.2172 44.9191 68.1055 44.5805 68.1055 44.2051C68.1055 43.9316 68.1727 43.6604 68.3073 43.3913C68.444 43.12 68.623 42.9204 68.8444 42.7923C69.0658 42.6621 69.3001 42.597 69.5475 42.597ZM69.4466 42.8086C69.3316 42.8086 69.2155 42.8433 69.0983 42.9128C68.9833 42.98 68.89 43.0994 68.8184 43.2708C68.7467 43.4423 68.7109 43.6625 68.7109 43.9316C68.7109 44.3657 68.7967 44.74 68.9681 45.0547C69.1417 45.3694 69.3696 45.5267 69.6517 45.5267C69.8622 45.5267 70.0358 45.4399 70.1725 45.2663C70.3092 45.0927 70.3776 44.7943 70.3776 44.3711C70.3776 43.8416 70.2637 43.4249 70.0358 43.1211C69.8817 42.9128 69.6853 42.8086 69.4466 42.8086Z" fill="black"/>
<path d="M21.0016 58V57.0483L23.5265 54.5732C23.768 54.3293 23.9692 54.1127 24.1302 53.9233C24.2912 53.7339 24.4119 53.5504 24.4924 53.3729C24.5729 53.1953 24.6132 53.0059 24.6132 52.8047C24.6132 52.5751 24.5611 52.3786 24.4569 52.2152C24.3527 52.0495 24.2095 51.9216 24.0272 51.8317C23.8449 51.7417 23.6378 51.6967 23.4058 51.6967C23.1667 51.6967 22.9571 51.7465 22.7772 51.8459C22.5973 51.9429 22.4576 52.0814 22.3582 52.2614C22.2611 52.4413 22.2126 52.6555 22.2126 52.9041H20.959C20.959 52.4425 21.0644 52.0412 21.2751 51.7003C21.4858 51.3594 21.7758 51.0954 22.1451 50.9084C22.5168 50.7214 22.9429 50.6278 23.4235 50.6278C23.9112 50.6278 24.3397 50.719 24.709 50.9013C25.0784 51.0836 25.3648 51.3333 25.5684 51.6506C25.7744 51.9678 25.8774 52.33 25.8774 52.7372C25.8774 53.0095 25.8253 53.277 25.7211 53.5398C25.6169 53.8026 25.4335 54.0938 25.1707 54.4134C24.9103 54.733 24.5445 55.12 24.0734 55.5746L22.8198 56.8494V56.8992H25.9874V58H21.0016Z" fill="black"/>
<path d="M29.5008 58.1385C28.916 58.1385 28.4141 57.9905 27.9951 57.6946C27.5784 57.3963 27.2577 56.9666 27.0328 56.4055C26.8102 55.8421 26.6989 55.1638 26.6989 54.3707C26.7013 53.5777 26.8138 52.9029 27.0363 52.3466C27.2612 51.7879 27.582 51.3617 27.9987 51.0682C28.4177 50.7746 28.9184 50.6278 29.5008 50.6278C30.0832 50.6278 30.5839 50.7746 31.0029 51.0682C31.422 51.3617 31.7427 51.7879 31.9653 52.3466C32.1902 52.9053 32.3026 53.58 32.3026 54.3707C32.3026 55.1662 32.1902 55.8456 31.9653 56.4091C31.7427 56.9702 31.422 57.3987 31.0029 57.6946C30.5863 57.9905 30.0855 58.1385 29.5008 58.1385ZM29.5008 57.027C29.9553 57.027 30.314 56.8033 30.5768 56.3558C30.8419 55.906 30.9745 55.2443 30.9745 54.3707C30.9745 53.7931 30.9141 53.3078 30.7934 52.9148C30.6727 52.5218 30.5022 52.2259 30.282 52.027C30.0619 51.8258 29.8015 51.7251 29.5008 51.7251C29.0486 51.7251 28.6911 51.95 28.4284 52.3999C28.1656 52.8473 28.033 53.5043 28.0306 54.3707C28.0283 54.9508 28.0863 55.4384 28.2046 55.8338C28.3254 56.2292 28.4958 56.5275 28.716 56.7287C28.9362 56.9276 29.1978 57.027 29.5008 57.027Z" fill="black"/>
<path d="M33.0825 58V57.0483L35.6074 54.5732C35.8488 54.3293 36.0501 54.1127 36.2111 53.9233C36.372 53.7339 36.4928 53.5504 36.5733 53.3729C36.6538 53.1953 36.694 53.0059 36.694 52.8047C36.694 52.5751 36.6419 52.3786 36.5378 52.2152C36.4336 52.0495 36.2904 51.9216 36.1081 51.8317C35.9258 51.7417 35.7186 51.6967 35.4866 51.6967C35.2475 51.6967 35.038 51.7465 34.8581 51.8459C34.6782 51.9429 34.5385 52.0814 34.439 52.2614C34.342 52.4413 34.2934 52.6555 34.2934 52.9041H33.0399C33.0399 52.4425 33.1452 52.0412 33.3559 51.7003C33.5666 51.3594 33.8567 51.0954 34.226 50.9084C34.5977 50.7214 35.0238 50.6278 35.5044 50.6278C35.9921 50.6278 36.4206 50.719 36.7899 50.9013C37.1592 51.0836 37.4457 51.3333 37.6493 51.6506C37.8552 51.9678 37.9582 52.33 37.9582 52.7372C37.9582 53.0095 37.9061 53.277 37.802 53.5398C37.6978 53.8026 37.5143 54.0938 37.2515 54.4134C36.9911 54.733 36.6254 55.12 36.1542 55.5746L34.9007 56.8494V56.8992H38.0683V58H33.0825Z" fill="black"/>
<path d="M41.8515 50.7273V58H40.5341V52.0092H40.4915L38.7905 53.0959V51.8885L40.598 50.7273H41.8515Z" fill="black"/>
<path d="M45.9863 58.1385C45.4016 58.1385 44.8997 57.9905 44.4807 57.6946C44.064 57.3963 43.7432 56.9666 43.5183 56.4055C43.2958 55.8421 43.1845 55.1638 43.1845 54.3707C43.1869 53.5777 43.2993 52.9029 43.5219 52.3466C43.7468 51.7879 44.0675 51.3617 44.4842 51.0682C44.9032 50.7746 45.404 50.6278 45.9863 50.6278C46.5687 50.6278 47.0694 50.7746 47.4885 51.0682C47.9075 51.3617 48.2283 51.7879 48.4508 52.3466C48.6757 52.9053 48.7882 53.58 48.7882 54.3707C48.7882 55.1662 48.6757 55.8456 48.4508 56.4091C48.2283 56.9702 47.9075 57.3987 47.4885 57.6946C47.0718 57.9905 46.5711 58.1385 45.9863 58.1385ZM45.9863 57.027C46.4409 57.027 46.7995 56.8033 47.0623 56.3558C47.3275 55.906 47.4601 55.2443 47.4601 54.3707C47.4601 53.7931 47.3997 53.3078 47.279 52.9148C47.1582 52.5218 46.9878 52.2259 46.7676 52.027C46.5474 51.8258 46.287 51.7251 45.9863 51.7251C45.5342 51.7251 45.1767 51.95 44.9139 52.3999C44.6511 52.8473 44.5185 53.5043 44.5162 54.3707C44.5138 54.9508 44.5718 55.4384 44.6902 55.8338C44.8109 56.2292 44.9814 56.5275 45.2015 56.7287C45.4217 56.9276 45.6833 57.027 45.9863 57.027Z" fill="black"/>
<path d="M52.1781 58.0994C51.6668 58.0994 51.2122 58.0118 50.8145 57.8367C50.4191 57.6615 50.1066 57.4176 49.877 57.1051C49.6474 56.7926 49.5254 56.4316 49.5112 56.022H50.8465C50.8583 56.2185 50.9234 56.3902 51.0418 56.5369C51.1601 56.6813 51.3176 56.7938 51.5141 56.8743C51.7106 56.9548 51.9307 56.995 52.1746 56.995C52.435 56.995 52.6658 56.9501 52.8671 56.8601C53.0683 56.7678 53.2257 56.6399 53.3394 56.4766C53.453 56.3132 53.5086 56.125 53.5063 55.9119C53.5086 55.6918 53.4518 55.4976 53.3358 55.3295C53.2198 55.1615 53.0517 55.0301 52.8316 54.9354C52.6137 54.8407 52.351 54.7933 52.0432 54.7933H51.4004V53.7777H52.0432C52.2965 53.7777 52.5179 53.7339 52.7073 53.6463C52.899 53.5587 53.0493 53.4356 53.1582 53.277C53.2672 53.116 53.3204 52.9302 53.3181 52.7195C53.3204 52.5135 53.2743 52.3348 53.1796 52.1832C53.0872 52.0294 52.9558 51.9098 52.7854 51.8246C52.6173 51.7393 52.4196 51.6967 52.1923 51.6967C51.9698 51.6967 51.7638 51.737 51.5744 51.8175C51.3851 51.898 51.2324 52.0128 51.1163 52.1619C51.0003 52.3087 50.9388 52.4839 50.9317 52.6875H49.6639C49.6734 52.2803 49.7906 51.9228 50.0155 51.6151C50.2428 51.3049 50.5458 51.0634 50.9246 50.8906C51.3034 50.7154 51.7283 50.6278 52.1994 50.6278C52.6848 50.6278 53.1062 50.719 53.4636 50.9013C53.8235 51.0812 54.1017 51.3239 54.2982 51.6293C54.4947 51.9347 54.5929 52.272 54.5929 52.6413C54.5953 53.0509 54.4745 53.3942 54.2307 53.6712C53.9892 53.9482 53.672 54.1293 53.279 54.2145V54.2713C53.7904 54.3423 54.1822 54.5317 54.4544 54.8395C54.729 55.1449 54.8652 55.5249 54.8628 55.9794C54.8628 56.3866 54.7468 56.7512 54.5148 57.0732C54.2851 57.3928 53.9679 57.6437 53.5631 57.826C53.1606 58.0083 52.699 58.0994 52.1781 58.0994Z" fill="black"/>
<path d="M58.267 58.0994C57.739 58.0994 57.2703 58.0107 56.8607 57.8331C56.4535 57.6555 56.1339 57.4129 55.9019 57.1051C55.6723 56.795 55.5586 56.4434 55.561 56.0504C55.5586 55.745 55.6249 55.4645 55.7599 55.2088C55.8948 54.9531 56.0771 54.7401 56.3067 54.5696C56.5387 54.3968 56.7968 54.2867 57.0809 54.2393V54.1896C56.7068 54.1068 56.4038 53.9162 56.1718 53.6179C55.9421 53.3172 55.8285 52.9704 55.8309 52.5774C55.8285 52.2034 55.9327 51.8696 56.1434 51.576C56.3541 51.2824 56.6429 51.0516 57.0099 50.8835C57.3768 50.7131 57.7958 50.6278 58.267 50.6278C58.7333 50.6278 59.1488 50.7131 59.5134 50.8835C59.8804 51.0516 60.1692 51.2824 60.3799 51.576C60.5929 51.8696 60.6995 52.2034 60.6995 52.5774C60.6995 52.9704 60.5823 53.3172 60.3479 53.6179C60.1159 53.9162 59.8164 54.1068 59.4495 54.1896V54.2393C59.7336 54.2867 59.9893 54.3968 60.2165 54.5696C60.4462 54.7401 60.6285 54.9531 60.7634 55.2088C60.9007 55.4645 60.9694 55.745 60.9694 56.0504C60.9694 56.4434 60.8534 56.795 60.6214 57.1051C60.3894 57.4129 60.0697 57.6555 59.6625 57.8331C59.2577 58.0107 58.7925 58.0994 58.267 58.0994ZM58.267 57.0838C58.5392 57.0838 58.7759 57.0376 58.9772 56.9453C59.1784 56.8506 59.3347 56.718 59.4459 56.5476C59.5572 56.3771 59.614 56.1806 59.6164 55.9581C59.614 55.7261 59.5536 55.5213 59.4353 55.3438C59.3193 55.1638 59.1595 55.023 58.9559 54.9212C58.7546 54.8194 58.525 54.7685 58.267 54.7685C58.0065 54.7685 57.7745 54.8194 57.5709 54.9212C57.3673 55.023 57.2063 55.1638 57.088 55.3438C56.972 55.5213 56.9152 55.7261 56.9175 55.9581C56.9152 56.1806 56.9696 56.3771 57.0809 56.5476C57.1921 56.7157 57.3484 56.8471 57.5496 56.9418C57.7532 57.0365 57.9923 57.0838 58.267 57.0838ZM58.267 53.7706C58.4895 53.7706 58.686 53.7256 58.8564 53.6357C59.0293 53.5457 59.1654 53.4202 59.2648 53.2592C59.3643 53.0982 59.4152 52.9124 59.4175 52.7017C59.4152 52.4934 59.3654 52.3111 59.2684 52.1548C59.1713 51.9962 59.0364 51.8743 58.8635 51.7891C58.6907 51.7015 58.4919 51.6577 58.267 51.6577C58.0373 51.6577 57.8349 51.7015 57.6597 51.7891C57.4869 51.8743 57.3519 51.9962 57.2549 52.1548C57.1602 52.3111 57.114 52.4934 57.1164 52.7017C57.114 52.9124 57.1614 53.0982 57.2584 53.2592C57.3579 53.4179 57.494 53.5433 57.6668 53.6357C57.842 53.7256 58.042 53.7706 58.267 53.7706Z" fill="black"/>
<path d="M64.3469 58.0994C63.8355 58.0994 63.381 58.0118 62.9833 57.8367C62.5879 57.6615 62.2754 57.4176 62.0458 57.1051C61.8161 56.7926 61.6942 56.4316 61.68 56.022H63.0152C63.0271 56.2185 63.0922 56.3902 63.2105 56.5369C63.3289 56.6813 63.4863 56.7938 63.6828 56.8743C63.8793 56.9548 64.0995 56.995 64.3433 56.995C64.6038 56.995 64.8346 56.9501 65.0358 56.8601C65.237 56.7678 65.3945 56.6399 65.5081 56.4766C65.6217 56.3132 65.6774 56.125 65.675 55.9119C65.6774 55.6918 65.6206 55.4976 65.5046 55.3295C65.3886 55.1615 65.2205 55.0301 65.0003 54.9354C64.7825 54.8407 64.5197 54.7933 64.2119 54.7933H63.5692V53.7777H64.2119C64.4653 53.7777 64.6866 53.7339 64.876 53.6463C65.0678 53.5587 65.2181 53.4356 65.327 53.277C65.4359 53.116 65.4892 52.9302 65.4868 52.7195C65.4892 52.5135 65.443 52.3348 65.3483 52.1832C65.256 52.0294 65.1246 51.9098 64.9541 51.8246C64.786 51.7393 64.5884 51.6967 64.3611 51.6967C64.1385 51.6967 63.9326 51.737 63.7432 51.8175C63.5538 51.898 63.4011 52.0128 63.2851 52.1619C63.1691 52.3087 63.1075 52.4839 63.1004 52.6875H61.8327C61.8422 52.2803 61.9593 51.9228 62.1842 51.6151C62.4115 51.3049 62.7146 51.0634 63.0933 50.8906C63.4721 50.7154 63.8971 50.6278 64.3682 50.6278C64.8535 50.6278 65.2749 50.719 65.6324 50.9013C65.9922 51.0812 66.2704 51.3239 66.4669 51.6293C66.6634 51.9347 66.7617 52.272 66.7617 52.6413C66.764 53.0509 66.6433 53.3942 66.3994 53.6712C66.158 53.9482 65.8407 54.1293 65.4477 54.2145V54.2713C65.9591 54.3423 66.3509 54.5317 66.6232 54.8395C66.8978 55.1449 67.0339 55.5249 67.0315 55.9794C67.0315 56.3866 66.9155 56.7512 66.6835 57.0732C66.4539 57.3928 66.1367 57.6437 65.7318 57.826C65.3294 58.0083 64.8677 58.0994 64.3469 58.0994Z" fill="black"/>
<path d="M70.5387 58.1385C69.9539 58.1385 69.452 57.9905 69.033 57.6946C68.6163 57.3963 68.2955 56.9666 68.0706 56.4055C67.8481 55.8421 67.7368 55.1638 67.7368 54.3707C67.7392 53.5777 67.8517 52.9029 68.0742 52.3466C68.2991 51.7879 68.6199 51.3617 69.0366 51.0682C69.4556 50.7746 69.9563 50.6278 70.5387 50.6278C71.1211 50.6278 71.6218 50.7746 72.0408 51.0682C72.4598 51.3617 72.7806 51.7879 73.0032 52.3466C73.2281 52.9053 73.3405 53.58 73.3405 54.3707C73.3405 55.1662 73.2281 55.8456 73.0032 56.4091C72.7806 56.9702 72.4598 57.3987 72.0408 57.6946C71.6241 57.9905 71.1234 58.1385 70.5387 58.1385ZM70.5387 57.027C70.9932 57.027 71.3519 56.8033 71.6147 56.3558C71.8798 55.906 72.0124 55.2443 72.0124 54.3707C72.0124 53.7931 71.952 53.3078 71.8313 52.9148C71.7106 52.5218 71.5401 52.2259 71.3199 52.027C71.0998 51.8258 70.8393 51.7251 70.5387 51.7251C70.0865 51.7251 69.729 51.95 69.4662 52.3999C69.2035 52.8473 69.0709 53.5043 69.0685 54.3707C69.0661 54.9508 69.1241 55.4384 69.2425 55.8338C69.3633 56.2292 69.5337 56.5275 69.7539 56.7287C69.9741 56.9276 70.2356 57.027 70.5387 57.027Z" fill="black"/>
<path d="M74.1914 58V50.7273H76.9187C77.4774 50.7273 77.9462 50.8243 78.3249 51.0185C78.7061 51.2126 78.9937 51.4848 79.1879 51.8352C79.3844 52.1832 79.4826 52.5893 79.4826 53.0533C79.4826 53.5197 79.3832 53.9245 79.1843 54.2678C78.9878 54.6087 78.6978 54.8726 78.3143 55.0597C77.9308 55.2443 77.4596 55.3367 76.9009 55.3367H74.9585V54.2429H76.7234C77.0501 54.2429 77.3176 54.1979 77.5259 54.108C77.7343 54.0156 77.8882 53.8819 77.9876 53.7067C78.0894 53.5291 78.1403 53.3113 78.1403 53.0533C78.1403 52.7952 78.0894 52.5751 77.9876 52.3928C77.8858 52.2081 77.7307 52.0684 77.5224 51.9737C77.3141 51.8767 77.0453 51.8281 76.7163 51.8281H75.5089V58H74.1914ZM77.9485 54.7045L79.7489 58H78.2788L76.5103 54.7045H77.9485Z" fill="black"/>
<path d="M50.1667 93.7872L47.5762 95.6667L48.5973 92.6099L46 90.7235H49.1798L50.1667 87.6667L51.1535 90.7235H54.3333L51.736 92.6099L52.7571 95.6667L50.1667 93.7872Z" fill="black"/>
<path d="M15.9646 74.7735L17.2366 72.0014C17.4474 71.5419 17.5609 71.2378 17.577 71.0892C17.5889 70.9396 17.56 70.79 17.4901 70.6404L17.6341 70.5526L19.2025 73.1244L19.0586 73.2122C18.9181 73.0168 18.8063 72.9035 18.7232 72.8723C18.6401 72.8411 18.5648 72.8461 18.4974 72.8872C18.4507 72.9157 18.4147 72.9501 18.3895 72.9904C18.3338 73.0742 18.244 73.2536 18.1198 73.5285L17.4497 74.9942L18.9252 75.1992C19.3706 75.2585 19.6465 75.2558 19.7529 75.1909C19.8281 75.145 19.8791 75.0712 19.906 74.9694C19.9329 74.8676 19.9234 74.747 19.8776 74.6077C19.86 74.5437 19.7997 74.4275 19.6969 74.2589L19.8409 74.1711L21.0771 76.1982L20.9332 76.286C20.7587 76.0757 20.5857 75.9321 20.4142 75.8552C20.1889 75.7541 19.792 75.6635 19.2234 75.5832L17.309 75.3148L16.155 77.8602C15.9652 78.2784 15.8616 78.5142 15.8443 78.5675C15.8014 78.6897 15.7824 78.7956 15.7872 78.8852C15.792 78.9748 15.8217 79.0848 15.8763 79.2152L15.7324 79.303L14.1354 76.6845L14.2794 76.5967L14.3601 76.729C14.4518 76.8794 14.5405 76.9694 14.6262 76.999C14.7093 77.0302 14.7871 77.0237 14.8598 76.9794C14.9168 76.9446 14.9606 76.9054 14.991 76.862L15.2319 76.3467L15.8293 75.0856L14.8091 74.9445C14.2849 74.8727 13.9528 74.8795 13.8127 74.965C13.7427 75.0077 13.6905 75.068 13.6561 75.1459C13.6202 75.2211 13.6083 75.3067 13.6205 75.4025C13.6326 75.4983 13.687 75.6253 13.7835 75.7835L13.6395 75.8713L12.4554 73.9298L12.5994 73.842C12.6953 73.9934 12.7899 74.1048 12.8832 74.176C12.9739 74.2488 13.0996 74.3091 13.2604 74.357C13.3638 74.3864 13.6599 74.4372 14.1486 74.5092L15.9646 74.7735Z" fill="black"/>
<path d="M10.1365 60.9608L11.8485 60.6999C12.1788 60.6495 12.3846 60.5981 12.4658 60.5458C12.5434 60.491 12.6 60.4086 12.6355 60.2987C12.671 60.1888 12.6675 59.9942 12.6249 59.7148L12.7916 59.6894L13.2682 62.8161L13.1015 62.8415C13.0585 62.5591 13.0039 62.3723 12.9377 62.281C12.8681 62.1871 12.7882 62.127 12.6982 62.1008C12.6077 62.0716 12.3972 62.0822 12.0669 62.1325L8.10224 62.7369C7.77186 62.7873 7.56782 62.8399 7.49013 62.8948C7.40899 62.9471 7.35067 63.0282 7.31517 63.1381C7.27968 63.248 7.28323 63.4426 7.32581 63.7219L7.15911 63.7474L6.72643 60.9091C6.61379 60.1702 6.58243 59.6218 6.63235 59.2638C6.68228 58.9058 6.82891 58.5977 7.07227 58.3393C7.31262 58.0814 7.61751 57.9243 7.98694 57.868C8.43747 57.7993 8.83462 57.9047 9.17842 58.1842C9.39623 58.363 9.58007 58.6316 9.72996 58.9898L11.574 57.2059C11.812 56.9729 11.9578 56.8108 12.0115 56.7197C12.0859 56.5823 12.1152 56.4319 12.0995 56.2683L12.2662 56.2429L12.5594 58.1666L10.0753 60.5599L10.1365 60.9608ZM7.14047 61.4176L9.81659 61.0096L9.77744 60.7528C9.7138 60.3353 9.62863 60.0287 9.52195 59.8329C9.41227 59.6376 9.24938 59.4964 9.0333 59.4095C8.81375 59.32 8.54329 59.2998 8.22191 59.3488C7.75637 59.4198 7.42918 59.5818 7.24035 59.835C7.05106 60.0851 6.99327 60.4519 7.06699 60.9355L7.14047 61.4176Z" fill="black"/>
<path d="M6.15304 43.997L8.59959 44.5824L8.62823 44.4627C8.71944 44.0816 8.66588 43.7767 8.46755 43.548C8.26922 43.3194 7.94229 43.1256 7.48674 42.9666L7.52704 42.7981L10.6739 43.5511L10.6336 43.7196C10.2823 43.673 9.98361 43.6812 9.73738 43.7441C9.49186 43.8041 9.31413 43.9005 9.20421 44.0336C9.09132 44.1659 9.00059 44.3753 8.932 44.662L10.6251 45.0671C10.956 45.1463 11.1616 45.1814 11.2418 45.1725C11.3228 45.1606 11.3961 45.1219 11.4617 45.0564C11.5274 44.9909 11.5807 44.8725 11.6217 44.7011L11.7077 44.3421C11.842 43.7807 11.8195 43.3004 11.64 42.9014C11.4613 42.4994 11.1237 42.1608 10.6272 41.8858L10.6664 41.7218L12.512 42.4493L11.269 47.6438L11.105 47.6046L11.1528 47.4051C11.1945 47.2308 11.197 47.083 11.1604 46.9618C11.1375 46.8751 11.0807 46.799 10.9901 46.7336C10.927 46.6841 10.7447 46.6233 10.4433 46.5512L6.48984 45.6052C6.21801 45.5401 6.04929 45.5076 5.98371 45.5075C5.87322 45.5123 5.78036 45.5479 5.70513 45.6142C5.59553 45.7067 5.51739 45.8505 5.47073 46.0455L5.423 46.2449L5.25901 46.2057L6.46276 41.1752L8.24006 41.6005L8.19976 41.7689C7.7449 41.7506 7.40418 41.7972 7.1776 41.9085C6.95173 42.0169 6.76053 42.2024 6.60401 42.4648C6.51123 42.6175 6.4104 42.9214 6.30152 43.3765L6.15304 43.997Z" fill="black"/>
<path d="M14.2462 27.9921L17.2948 28.0846C17.8001 28.0999 18.1244 28.086 18.2676 28.043C18.4101 27.9958 18.5366 27.9109 18.6471 27.7883L18.7841 27.8867L17.0257 30.3327L16.8888 30.2342C17.0141 30.0287 17.0749 29.8816 17.0713 29.793C17.0677 29.7043 17.0338 29.6369 16.9697 29.5908C16.9253 29.5589 16.8796 29.5391 16.8327 29.5316C16.7338 29.5129 16.5336 29.5 16.232 29.4927L14.6211 29.4459L15.0066 30.8849C15.1254 31.3183 15.2354 31.5713 15.3365 31.644C15.4081 31.6955 15.4959 31.7137 15.6002 31.6989C15.7044 31.684 15.8118 31.6283 15.9223 31.5319C15.9743 31.4907 16.058 31.39 16.1732 31.2296L16.3101 31.3281L14.9242 33.2559L14.7873 33.1575C14.9131 32.9149 14.978 32.6997 14.9821 32.5118C14.9874 32.2649 14.9164 31.864 14.7691 31.3091L14.2709 29.4412L11.4771 29.3691C11.018 29.3571 10.7605 29.3535 10.7047 29.3583C10.5754 29.3664 10.4705 29.3901 10.3898 29.4294C10.3092 29.4687 10.2194 29.5389 10.1206 29.6399L9.98368 29.5415L11.7739 27.0512L11.9109 27.1496L11.8204 27.2754C11.7176 27.4185 11.6692 27.5352 11.6752 27.6257C11.6789 27.7143 11.7152 27.7835 11.7843 27.8331C11.8386 27.8722 11.8916 27.8972 11.9435 27.9083L12.5119 27.9297L13.9061 27.989L13.6389 26.9943C13.501 26.4835 13.3654 26.1803 13.2322 26.0845C13.1656 26.0366 13.0897 26.012 13.0046 26.0107C12.9213 26.0069 12.8378 26.0293 12.7543 26.0778C12.6708 26.1262 12.575 26.2257 12.4668 26.3762L12.3299 26.2778L13.6573 24.4313L13.7942 24.5297C13.6921 24.6771 13.6263 24.8075 13.597 24.9212C13.5652 25.033 13.5586 25.1723 13.5772 25.3391C13.5903 25.4458 13.6588 25.7383 13.7827 26.2165L14.2462 27.9921Z" fill="black"/>
<path d="M34.4798 11.6231L34.9781 13.2626C35.0753 13.5824 35.1556 13.7786 35.219 13.8515C35.2845 13.9205 35.3741 13.9647 35.488 13.984C35.6047 14.0025 35.7968 13.9711 36.0642 13.8898L36.1133 14.0512L33.109 14.9644L33.06 14.8031C33.3332 14.72 33.5103 14.6392 33.5912 14.5606C33.6742 14.4782 33.7221 14.3906 33.7352 14.2977C33.7511 14.204 33.7105 13.9972 33.6133 13.6775L32.447 9.84039C32.3498 9.52064 32.2685 9.32625 32.203 9.25723C32.1396 9.18442 32.051 9.13832 31.9371 9.11895C31.8233 9.09958 31.6312 9.13098 31.3608 9.21315L31.3118 9.05182L33.8887 8.2685C34.7375 8.01049 35.3925 7.97653 35.8535 8.16663C36.3146 8.35672 36.6141 8.67851 36.7519 9.13198C36.8685 9.51568 36.8492 9.88039 36.6939 10.2261C36.5386 10.5718 36.2667 10.8577 35.8781 11.0837C35.6174 11.2392 35.1512 11.419 34.4798 11.6231ZM33.5997 8.72789L34.3764 11.283C34.4741 11.2597 34.5476 11.2405 34.597 11.2255C34.9517 11.1177 35.1931 10.93 35.3213 10.6624C35.4487 10.3918 35.4452 10.0357 35.3109 9.59381C35.1775 9.15488 34.9839 8.86283 34.7302 8.71767C34.4765 8.5725 34.1592 8.5578 33.7785 8.67355L33.5997 8.72789Z" fill="black"/>
<path d="M52.788 5.12109V6.79362H52.624C52.5267 6.40777 52.4189 6.13129 52.3004 5.96419C52.1819 5.79405 52.0194 5.65885 51.8128 5.55859C51.6973 5.50391 51.4953 5.47656 51.2066 5.47656H50.7464V10.2435C50.7464 10.5595 50.7631 10.7569 50.7965 10.8359C50.8329 10.9149 50.9013 10.9848 51.0016 11.0456C51.1049 11.1033 51.2446 11.1322 51.4208 11.1322H51.6259V11.3008H48.3902V11.1322H48.5953C48.7746 11.1322 48.9189 11.1003 49.0283 11.0365C49.1073 10.9939 49.1695 10.921 49.2151 10.8177C49.2485 10.7448 49.2652 10.5534 49.2652 10.2435V5.47656H48.8186C48.4024 5.47656 48.1001 5.56467 47.9117 5.74089C47.6474 5.98698 47.4803 6.33789 47.4104 6.79362H47.2372V5.12109H52.788Z" fill="black"/>
<path d="M66.2417 8.31193L65.1234 10.5653L65.2336 10.62C65.5847 10.7943 65.8939 10.8103 66.1611 10.6682C66.4283 10.5261 66.6904 10.2508 66.9474 9.84245L67.1025 9.91944L65.6642 12.8179L65.509 12.7409C65.633 12.409 65.6919 12.116 65.6857 11.8619C65.6823 11.6092 65.628 11.4144 65.523 11.2775C65.4193 11.1378 65.2355 11.0025 64.9715 10.8715L64.1976 12.431C64.0464 12.7358 63.9661 12.9283 63.9568 13.0085C63.9503 13.09 63.9716 13.1701 64.0207 13.2488C64.0699 13.3274 64.1734 13.4059 64.3312 13.4842L64.6619 13.6483C65.179 13.9049 65.6521 13.9905 66.0812 13.9049C66.513 13.8208 66.9185 13.5675 67.2977 13.1451L67.4487 13.2201L66.3266 14.856L61.5421 12.4817L61.6171 12.3307L61.8008 12.4219C61.9614 12.5015 62.1048 12.5371 62.2311 12.5286C62.3208 12.5256 62.4077 12.4873 62.4917 12.4137C62.554 12.3632 62.6541 12.1992 62.7918 11.9216L64.5989 8.28019C64.7231 8.02981 64.7926 7.87267 64.8074 7.80876C64.8274 7.7 64.8135 7.60154 64.7657 7.51336C64.7001 7.38584 64.5775 7.27751 64.3979 7.18838L64.2142 7.09721L64.2891 6.94617L68.9225 9.24547L68.1102 10.8825L67.955 10.8055C68.0746 10.3663 68.1055 10.0238 68.0477 9.778C67.9927 9.5336 67.8547 9.30574 67.634 9.09445C67.5059 8.96983 67.2323 8.80353 66.8132 8.59555L66.2417 8.31193Z" fill="black"/>
<path d="M78.2485 17.8317C78.3649 17.9515 78.4208 18.0942 78.4163 18.2595C78.416 18.425 78.357 18.5648 78.2393 18.6792C78.1195 18.7956 77.9758 18.8526 77.8082 18.8501C77.6428 18.8456 77.503 18.7844 77.3887 18.6667C77.2723 18.5469 77.2142 18.4042 77.2144 18.2388C77.219 18.0734 77.2812 17.9325 77.4011 17.8161C77.5188 17.7018 77.6592 17.6458 77.8225 17.6482C77.9901 17.6507 78.132 17.7118 78.2485 17.8317Z" fill="black"/>
<path d="M90.5168 42.5353L88.338 42.6484L87.4714 37.2303L87.6379 37.2037L87.6703 37.4062C87.6986 37.5832 87.7529 37.7206 87.8332 37.8185C87.8876 37.8898 87.9692 37.9383 88.0779 37.964C88.1552 37.9855 88.3469 37.9718 88.6529 37.9228L92.667 37.2807C92.979 37.2308 93.1713 37.1831 93.244 37.1377C93.3168 37.0922 93.3735 37.0139 93.4142 36.9028C93.4583 36.7942 93.4667 36.6544 93.4394 36.4834L93.407 36.2809L93.5735 36.2542L94.0939 39.5078L93.9274 39.5344L93.8849 39.2689C93.8566 39.0919 93.8023 38.9545 93.7221 38.8565C93.6676 38.7852 93.5857 38.7353 93.4765 38.7066C93.3993 38.6851 93.2076 38.6988 92.9016 38.7478L89.0135 39.3697C88.7015 39.4196 88.5049 39.4695 88.4237 39.5194C88.3454 39.5689 88.2937 39.6494 88.2685 39.7612C88.2535 39.8405 88.269 40.0241 88.3151 40.3121L88.3964 40.8206C88.4482 41.1447 88.5484 41.4055 88.697 41.6033C88.8455 41.8011 89.0553 41.9583 89.3263 42.0749C89.5977 42.1946 89.9847 42.2865 90.4873 42.3508L90.5168 42.5353Z" fill="black"/>
<path d="M94.382 58.7649L92.7498 58.3995L92.7857 58.2394C93.1835 58.2289 93.4768 58.184 93.6658 58.1049C93.8577 58.0264 94.0251 57.8974 94.1681 57.7176C94.2467 57.6169 94.3175 57.4257 94.3806 57.1441L94.4811 56.6949L89.8293 55.6535C89.521 55.5845 89.3246 55.5577 89.2402 55.573C89.1552 55.5913 89.0721 55.6428 88.9909 55.7274C88.912 55.8155 88.8533 55.9456 88.8148 56.1176L88.77 56.3177L88.6054 56.2809L89.3123 53.1233L89.4769 53.1602L89.4321 53.3603C89.3929 53.5352 89.3925 53.683 89.4309 53.8037C89.4551 53.8901 89.5127 53.9668 89.6035 54.0338C89.6674 54.0824 89.8505 54.1405 90.1529 54.2082L94.8047 55.2496L94.9023 54.8137C94.9932 54.4076 94.9733 54.0933 94.8424 53.871C94.66 53.5593 94.3541 53.3196 93.9246 53.1518L93.9625 52.9828L95.5946 53.3482L94.382 58.7649Z" fill="black"/>
<path d="M86.1002 66.4795L86.2383 66.5763L86.1205 66.7442C86.0175 66.8909 85.9614 67.0185 85.952 67.1271C85.9435 67.2398 85.9659 67.3427 86.0193 67.4359C86.0558 67.4949 86.2046 67.616 86.4658 67.7993L89.7934 70.1342C90.0521 70.3157 90.2233 70.4154 90.3072 70.4335C90.391 70.4515 90.4863 70.4348 90.5928 70.3834C90.7002 70.3362 90.8036 70.2417 90.903 70.1L91.0208 69.9321L91.1589 70.029L89.57 72.2934C89.1459 72.8977 88.7227 73.3264 88.3003 73.5793C87.7829 73.8881 87.2392 74.015 86.6691 73.9601C86.0971 73.9077 85.5538 73.7009 85.039 73.3397C84.6833 73.0901 84.3952 72.8026 84.1745 72.477C83.9563 72.1532 83.8127 71.8316 83.7436 71.5122C83.677 71.1945 83.6678 70.8744 83.716 70.5519C83.7648 70.2336 83.8774 69.8802 84.0535 69.4916C84.1301 69.3189 84.2827 69.0697 84.5113 68.7439L86.1002 66.4795ZM89.5183 71.7561L85.5714 68.9866C85.3625 68.8401 85.2274 68.7601 85.1662 68.7469C85.105 68.7336 85.0454 68.7419 84.9873 68.7717C84.9029 68.8127 84.8162 68.8966 84.7272 69.0234C84.4358 69.4387 84.355 69.8553 84.485 70.2731C84.6586 70.8403 85.1483 71.4066 85.9541 71.972C86.6032 72.4275 87.1933 72.6893 87.7244 72.7576C88.1412 72.8089 88.4933 72.7461 88.7808 72.5692C88.9835 72.4442 89.2294 72.1732 89.5183 71.7561Z" fill="black"/>
<path d="M77.9888 82.5681C77.8525 82.6647 77.7029 82.6981 77.5402 82.6681C77.3768 82.6425 77.2477 82.5627 77.1528 82.4289C77.0561 82.2925 77.0219 82.1418 77.0501 81.9766C77.08 81.8139 77.1618 81.6851 77.2957 81.5902C77.432 81.4936 77.5819 81.4581 77.7453 81.4838C77.908 81.5137 78.0377 81.5968 78.1343 81.7331C78.2292 81.867 78.2629 82.0144 78.2355 82.1753C78.2074 82.3405 78.1251 82.4714 77.9888 82.5681Z" fill="black"/>
</svg>
